<svg id="svg" version="1.1" width="400" height="400" viewBox="0 0 400 400" xmlns="http://www.w3.org/2000/svg" xmlns:xlink="http://www.w3.org/1999/xlink" ><g id="svgg"><path id="path0" d="" stroke="none" fill="#000000" fill-rule="evenodd"></path><path id="path1" d="" stroke="none" fill="#555555" fill-rule="evenodd"></path><path id="path2" d="" stroke="none" fill="#999999" fill-rule="evenodd"></path><path id="path3" d="M397.286 223.024 C 396.783 223.561,396.545 224.000,396.757 224.000 C 397.250 224.000,398.400 222.859,398.400 222.371 C 398.400 221.867,398.335 221.905,397.286 223.024 " stroke="none" fill="#b6b6b6" fill-rule="evenodd"></path><path id="path4" d="M196.800 0.600 C 196.800 1.116,195.489 1.200,187.400 1.200 L 178.000 1.200 178.000 2.400 L 178.000 3.600 170.100 3.647 C 165.755 3.673,162.065 3.673,161.900 3.647 C 161.735 3.621,161.600 4.140,161.600 4.800 L 161.600 6.000 157.000 6.000 L 152.400 6.000 152.400 7.200 L 152.400 8.400 147.800 8.400 L 143.200 8.400 143.200 9.600 L 143.200 10.800 139.600 10.800 C 136.027 10.800,136.000 10.807,136.000 11.800 C 136.000 12.788,135.960 12.800,132.600 12.800 L 129.200 12.800 129.200 14.000 L 129.200 15.200 125.800 15.200 L 122.400 15.200 122.400 16.400 L 122.400 17.600 120.000 17.600 L 117.600 17.600 117.600 18.800 L 117.600 20.000 115.200 20.000 L 112.800 20.000 112.800 21.200 C 112.800 22.388,112.778 22.400,110.600 22.400 C 108.520 22.400,108.400 22.455,108.400 23.400 C 108.400 24.356,108.293 24.400,106.000 24.400 C 103.609 24.400,103.600 24.404,103.600 25.580 C 103.600 26.736,103.553 26.763,101.300 26.880 C 99.123 26.994,98.993 27.059,98.873 28.100 C 98.774 28.964,98.538 29.200,97.773 29.200 C 96.959 29.200,96.800 29.395,96.800 30.400 L 96.800 31.600 94.400 31.600 L 92.000 31.600 92.000 32.800 C 92.000 33.867,91.867 34.000,90.800 34.000 C 89.787 34.000,89.600 34.156,89.600 35.000 C 89.600 35.945,89.480 36.000,87.400 36.000 C 85.222 36.000,85.200 36.012,85.200 37.200 C 85.200 38.267,85.067 38.400,84.000 38.400 C 82.933 38.400,82.800 38.533,82.800 39.600 L 82.800 40.800 80.400 40.800 L 78.000 40.800 78.000 42.000 C 78.000 43.067,77.867 43.200,76.800 43.200 C 75.733 43.200,75.600 43.333,75.600 44.400 C 75.600 45.413,75.444 45.600,74.600 45.600 C 73.756 45.600,73.600 45.787,73.600 46.800 C 73.600 47.867,73.467 48.000,72.400 48.000 C 71.387 48.000,71.200 48.156,71.200 49.000 C 71.200 49.844,71.013 50.000,70.000 50.000 C 68.938 50.000,68.800 50.136,68.800 51.180 C 68.800 52.336,68.753 52.363,66.500 52.480 C 64.323 52.594,64.193 52.659,64.073 53.700 C 63.956 54.721,63.298 55.068,61.900 54.847 C 61.735 54.821,61.600 55.340,61.600 56.000 C 61.600 57.013,61.444 57.200,60.600 57.200 C 59.756 57.200,59.600 57.387,59.600 58.400 C 59.600 59.467,59.467 59.600,58.400 59.600 C 57.387 59.600,57.200 59.756,57.200 60.600 C 57.200 61.532,56.519 61.871,55.100 61.647 C 54.935 61.621,54.800 62.128,54.800 62.773 C 54.800 63.756,54.621 63.967,53.700 64.073 C 52.659 64.193,52.594 64.323,52.480 66.500 C 52.363 68.753,52.336 68.800,51.180 68.800 C 50.136 68.800,50.000 68.938,50.000 70.000 C 50.000 71.013,49.844 71.200,49.000 71.200 C 48.156 71.200,48.000 71.387,48.000 72.400 C 48.000 73.467,47.867 73.600,46.800 73.600 C 45.787 73.600,45.600 73.756,45.600 74.600 C 45.600 75.444,45.413 75.600,44.400 75.600 C 43.333 75.600,43.200 75.733,43.200 76.800 C 43.200 77.867,43.067 78.000,42.000 78.000 L 40.800 78.000 40.800 80.400 L 40.800 82.800 39.600 82.800 C 38.533 82.800,38.400 82.933,38.400 84.000 C 38.400 85.067,38.267 85.200,37.200 85.200 C 36.012 85.200,36.000 85.222,36.000 87.400 C 36.000 89.480,35.945 89.600,35.000 89.600 C 34.156 89.600,34.000 89.787,34.000 90.800 C 34.000 91.867,33.867 92.000,32.800 92.000 L 31.600 92.000 31.600 94.400 L 31.600 96.800 30.400 96.800 C 29.395 96.800,29.200 96.959,29.200 97.773 C 29.200 98.538,28.964 98.774,28.100 98.873 C 27.059 98.993,26.994 99.123,26.880 101.300 C 26.763 103.553,26.736 103.600,25.580 103.600 C 24.404 103.600,24.400 103.609,24.400 106.000 C 24.400 108.293,24.356 108.400,23.400 108.400 C 22.455 108.400,22.400 108.520,22.400 110.600 C 22.400 112.778,22.388 112.800,21.200 112.800 L 20.000 112.800 20.000 115.200 L 20.000 117.600 18.800 117.600 L 17.600 117.600 17.600 120.000 L 17.600 122.400 16.400 122.400 L 15.200 122.400 15.200 125.800 L 15.200 129.200 14.000 129.200 L 12.800 129.200 12.800 132.600 C 12.800 135.960,12.788 136.000,11.800 136.000 C 10.807 136.000,10.800 136.027,10.800 139.600 L 10.800 143.200 9.600 143.200 L 8.400 143.200 8.400 147.800 L 8.400 152.400 7.200 152.400 L 6.000 152.400 6.000 157.000 L 6.000 161.600 4.800 161.600 C 4.140 161.600,3.621 161.735,3.647 161.900 C 3.673 162.065,3.673 165.755,3.647 170.100 L 3.600 178.000 2.400 178.000 L 1.200 178.000 1.200 187.400 C 1.200 195.489,1.116 196.800,0.600 196.800 C 0.107 196.800,0.000 197.511,0.000 200.800 C 0.000 204.089,0.107 204.800,0.600 204.800 C 1.127 204.800,1.200 207.956,1.200 230.800 C 1.200 251.437,1.304 256.800,1.704 256.800 C 1.981 256.800,2.456 257.205,2.760 257.700 C 3.313 258.599,3.312 258.599,2.449 257.831 C 1.587 257.065,1.584 257.065,1.730 258.031 C 1.824 258.655,2.181 259.045,2.734 259.127 L 3.592 259.255 3.696 278.927 L 3.800 298.600 4.900 298.727 L 6.000 298.853 6.000 312.827 L 6.000 326.800 7.194 326.800 L 8.388 326.800 8.494 338.300 L 8.600 349.800 9.700 349.927 L 10.800 350.053 10.862 360.727 C 10.896 366.597,10.886 371.827,10.839 372.349 C 10.765 373.180,10.882 373.266,11.777 373.041 L 12.800 372.785 12.800 379.992 L 12.800 387.200 19.800 387.200 C 25.101 387.200,26.815 387.321,26.861 387.700 C 26.894 387.975,26.940 388.464,26.962 388.786 C 27.011 389.501,27.021 389.502,39.873 389.557 L 49.947 389.600 50.073 390.700 L 50.200 391.800 60.700 391.907 L 71.200 392.013 71.200 392.988 L 71.200 393.964 86.075 393.990 C 94.257 394.005,101.006 394.073,101.074 394.141 C 101.142 394.209,101.238 394.745,101.286 395.332 L 101.374 396.400 121.087 396.400 L 140.800 396.400 140.847 397.300 C 140.873 397.795,140.871 398.344,140.841 398.519 C 140.812 398.694,141.015 398.808,141.294 398.772 C 144.824 398.309,189.600 398.891,189.600 399.400 C 189.600 399.914,190.778 400.000,197.800 400.000 C 204.822 400.000,206.000 399.914,206.000 399.400 C 206.000 398.887,207.156 398.800,214.000 398.800 L 222.000 398.800 222.000 397.600 L 222.000 396.400 230.200 396.400 L 238.400 396.400 238.400 395.200 L 238.400 394.000 243.000 394.000 L 247.600 394.000 247.600 393.000 L 247.600 392.000 252.200 392.000 L 256.800 392.000 256.800 390.800 L 256.800 389.600 260.400 389.600 L 264.000 389.600 264.000 388.400 L 264.000 387.200 267.400 387.200 L 270.800 387.200 270.800 386.000 L 270.800 384.800 274.400 384.800 L 278.000 384.800 278.000 383.600 C 278.000 382.412,278.022 382.400,280.200 382.400 C 282.280 382.400,282.400 382.345,282.400 381.400 C 282.400 380.444,282.507 380.400,284.800 380.400 C 287.191 380.400,287.200 380.396,287.200 379.220 C 287.200 378.064,287.247 378.037,289.500 377.920 C 291.677 377.806,291.807 377.741,291.927 376.700 C 292.047 375.650,292.153 375.600,294.227 375.600 C 296.375 375.600,296.400 375.586,296.400 374.400 L 296.400 373.200 298.800 373.200 L 301.200 373.200 301.200 372.000 C 301.200 370.933,301.333 370.800,302.400 370.800 C 303.413 370.800,303.600 370.644,303.600 369.800 C 303.600 368.855,303.720 368.800,305.800 368.800 C 307.978 368.800,308.000 368.788,308.000 367.600 C 308.000 366.403,308.531 366.128,310.354 366.382 C 311.740 366.576,312.800 365.973,312.800 364.992 C 312.800 364.156,312.989 364.000,314.000 364.000 C 315.067 364.000,315.200 363.867,315.200 362.800 C 315.200 361.733,315.333 361.600,316.400 361.600 C 317.467 361.600,317.600 361.467,317.600 360.400 C 317.600 359.212,317.622 359.200,319.800 359.200 C 321.978 359.200,322.000 359.188,322.000 358.000 C 322.000 356.933,322.133 356.800,323.200 356.800 C 324.205 356.800,324.400 356.641,324.400 355.827 C 324.400 355.062,324.636 354.826,325.500 354.727 C 326.357 354.628,326.627 354.362,326.724 353.524 C 326.820 352.693,327.093 352.420,327.924 352.324 C 328.762 352.227,329.028 351.957,329.127 351.100 C 329.226 350.236,329.462 350.000,330.227 350.000 C 331.041 350.000,331.200 349.805,331.200 348.800 L 331.200 347.600 333.600 347.600 L 336.000 347.600 336.000 346.400 C 336.000 345.333,336.133 345.200,337.200 345.200 C 338.205 345.200,338.400 345.041,338.400 344.227 C 338.400 343.462,338.636 343.226,339.500 343.127 C 340.357 343.028,340.627 342.762,340.724 341.924 C 340.820 341.093,341.093 340.820,341.924 340.724 C 342.762 340.627,343.028 340.357,343.127 339.500 C 343.226 338.636,343.462 338.400,344.227 338.400 C 345.041 338.400,345.200 338.205,345.200 337.200 C 345.200 336.133,345.333 336.000,346.400 336.000 C 347.528 336.000,347.600 335.906,347.600 334.443 C 347.600 333.428,347.809 332.805,348.200 332.655 C 348.530 332.529,348.800 332.584,348.800 332.779 C 348.800 332.974,348.575 333.224,348.300 333.335 C 347.996 333.458,348.069 333.549,348.486 333.568 C 348.863 333.586,349.358 333.252,349.586 332.826 C 350.155 331.763,350.105 331.474,349.400 331.745 C 349.070 331.871,348.800 331.801,348.800 331.587 C 348.800 331.374,349.070 331.200,349.400 331.200 C 349.769 331.200,350.000 330.825,350.000 330.227 C 350.000 329.462,350.236 329.226,351.100 329.127 C 351.957 329.028,352.227 328.762,352.324 327.924 C 352.420 327.093,352.693 326.820,353.524 326.724 C 354.362 326.627,354.628 326.357,354.727 325.500 C 354.826 324.636,355.062 324.400,355.827 324.400 C 356.641 324.400,356.800 324.205,356.800 323.200 C 356.800 322.133,356.933 322.000,358.000 322.000 C 359.188 322.000,359.200 321.978,359.200 319.800 C 359.200 317.622,359.212 317.600,360.400 317.600 C 361.467 317.600,361.600 317.467,361.600 316.400 C 361.600 315.333,361.733 315.200,362.800 315.200 C 363.857 315.200,364.000 315.062,364.000 314.043 C 364.000 313.143,364.222 312.831,365.000 312.636 C 365.667 312.468,366.000 312.107,366.000 311.550 C 366.000 310.959,365.818 310.784,365.379 310.953 C 365.023 311.089,364.863 311.022,365.003 310.795 C 365.137 310.578,365.507 310.400,365.824 310.400 C 366.197 310.400,366.400 309.978,366.400 309.200 C 366.400 308.133,366.533 308.000,367.600 308.000 C 368.788 308.000,368.800 307.978,368.800 305.800 C 368.800 303.720,368.855 303.600,369.800 303.600 C 370.644 303.600,370.800 303.413,370.800 302.400 C 370.800 301.333,370.933 301.200,372.000 301.200 L 373.200 301.200 373.200 298.800 L 373.200 296.400 374.400 296.400 C 375.586 296.400,375.600 296.375,375.600 294.227 C 375.600 292.153,375.650 292.047,376.700 291.927 C 377.741 291.807,377.806 291.677,377.920 289.500 C 378.037 287.247,378.064 287.200,379.220 287.200 C 380.396 287.200,380.400 287.191,380.400 284.800 C 380.400 282.507,380.444 282.400,381.400 282.400 C 382.345 282.400,382.400 282.280,382.400 280.200 C 382.400 278.022,382.412 278.000,383.600 278.000 L 384.800 278.000 384.800 274.400 L 384.800 270.800 386.000 270.800 L 387.200 270.800 387.200 267.400 L 387.200 264.000 388.400 264.000 L 389.600 264.000 389.600 260.400 L 389.600 256.800 390.800 256.800 L 392.000 256.800 392.000 252.200 L 392.000 247.600 393.000 247.600 L 394.000 247.600 394.000 243.000 L 394.000 238.400 395.200 238.400 L 396.400 238.400 396.400 231.160 L 396.400 223.921 397.600 222.800 L 398.800 221.679 398.800 213.840 C 398.800 207.138,398.887 206.000,399.400 206.000 C 399.906 206.000,400.000 205.089,400.000 200.200 C 400.000 195.311,399.906 194.400,399.400 194.400 C 398.886 194.400,398.800 193.222,398.800 186.200 L 398.800 178.000 397.600 178.000 L 396.400 178.000 396.400 169.800 L 396.400 161.600 395.200 161.600 L 394.000 161.600 394.000 157.000 L 394.000 152.400 393.000 152.400 L 392.000 152.400 392.000 147.800 L 392.000 143.200 390.816 143.200 L 389.631 143.200 389.516 139.700 C 389.400 136.212,389.396 136.200,388.300 136.073 L 387.200 135.947 387.200 132.573 L 387.200 129.200 386.000 129.200 L 384.800 129.200 384.800 125.800 L 384.800 122.400 383.600 122.400 L 382.400 122.400 382.400 120.000 C 382.400 117.720,382.351 117.600,381.420 117.600 C 380.507 117.600,380.432 117.442,380.320 115.300 C 380.206 113.123,380.141 112.993,379.100 112.873 C 378.050 112.753,378.000 112.647,378.000 110.573 C 378.000 108.425,377.986 108.400,376.800 108.400 L 375.600 108.400 375.600 106.000 L 375.600 103.600 374.400 103.600 L 373.200 103.600 373.200 101.200 L 373.200 98.800 372.000 98.800 C 370.987 98.800,370.800 98.644,370.800 97.800 C 370.800 97.000,370.600 96.800,369.800 96.800 C 368.844 96.800,368.800 96.693,368.800 94.400 C 368.800 92.012,368.794 92.000,367.627 92.000 C 366.644 92.000,366.433 91.821,366.327 90.900 C 366.227 90.036,365.964 89.773,365.100 89.673 C 364.050 89.553,364.000 89.447,364.000 87.373 C 364.000 85.225,363.986 85.200,362.800 85.200 C 361.733 85.200,361.600 85.067,361.600 84.000 C 361.600 82.933,361.467 82.800,360.400 82.800 L 359.200 82.800 359.200 80.400 L 359.200 78.000 358.000 78.000 C 356.933 78.000,356.800 77.867,356.800 76.800 C 356.800 75.787,356.644 75.600,355.800 75.600 C 355.000 75.600,354.800 75.400,354.800 74.600 C 354.800 73.756,354.613 73.600,353.600 73.600 C 352.533 73.600,352.400 73.467,352.400 72.400 C 352.400 71.333,352.267 71.200,351.200 71.200 C 350.133 71.200,350.000 71.067,350.000 70.000 C 350.000 68.933,349.867 68.800,348.800 68.800 L 347.600 68.800 347.600 66.400 L 347.600 64.000 346.400 64.000 C 345.333 64.000,345.200 63.867,345.200 62.800 C 345.200 61.787,345.044 61.600,344.200 61.600 C 343.400 61.600,343.200 61.400,343.200 60.600 C 343.200 59.756,343.013 59.600,342.000 59.600 C 340.933 59.600,340.800 59.467,340.800 58.400 C 340.800 57.333,340.667 57.200,339.600 57.200 C 338.533 57.200,338.400 57.067,338.400 56.000 C 338.400 54.933,338.267 54.800,337.200 54.800 C 336.133 54.800,336.000 54.667,336.000 53.600 L 336.000 52.400 333.600 52.400 L 331.200 52.400 331.200 51.200 C 331.200 50.187,331.044 50.000,330.200 50.000 C 329.400 50.000,329.200 49.800,329.200 49.000 C 329.200 48.156,329.013 48.000,328.000 48.000 C 326.933 48.000,326.800 47.867,326.800 46.800 C 326.800 45.733,326.667 45.600,325.600 45.600 C 324.533 45.600,324.400 45.467,324.400 44.400 C 324.400 43.333,324.267 43.200,323.200 43.200 C 322.133 43.200,322.000 43.067,322.000 42.000 C 322.000 40.814,321.975 40.800,319.827 40.800 C 317.753 40.800,317.647 40.750,317.527 39.700 C 317.428 38.843,317.162 38.573,316.324 38.476 C 315.493 38.380,315.220 38.107,315.124 37.276 C 315.007 36.264,314.864 36.193,312.700 36.080 C 310.558 35.968,310.400 35.893,310.400 34.980 C 310.400 34.158,310.207 34.000,309.200 34.000 C 308.133 34.000,308.000 33.867,308.000 32.800 C 308.000 31.612,307.978 31.600,305.800 31.600 C 303.622 31.600,303.600 31.588,303.600 30.400 C 303.600 29.333,303.467 29.200,302.400 29.200 C 301.333 29.200,301.200 29.067,301.200 28.000 L 301.200 26.800 298.800 26.800 L 296.400 26.800 296.400 25.600 C 296.400 24.412,296.378 24.400,294.200 24.400 C 292.120 24.400,292.000 24.345,292.000 23.400 C 292.000 22.444,291.893 22.400,289.600 22.400 L 287.200 22.400 287.200 21.200 L 287.200 20.000 284.800 20.000 L 282.400 20.000 282.400 18.800 C 282.400 17.614,282.375 17.600,280.227 17.600 C 278.153 17.600,278.047 17.550,277.927 16.500 C 277.787 15.290,277.863 15.312,273.700 15.246 L 270.800 15.200 270.800 14.000 L 270.800 12.800 267.400 12.800 C 264.040 12.800,264.000 12.788,264.000 11.800 C 264.000 10.807,263.973 10.800,260.400 10.800 L 256.800 10.800 256.800 9.600 L 256.800 8.400 252.200 8.400 L 247.600 8.400 247.600 7.200 L 247.600 6.000 243.000 6.000 L 238.400 6.000 238.400 4.800 L 238.400 3.600 230.200 3.600 L 222.000 3.600 222.000 2.400 L 222.000 1.200 212.800 1.200 C 204.889 1.200,203.600 1.116,203.600 0.600 C 203.600 0.114,202.956 0.000,200.200 0.000 C 197.444 0.000,196.800 0.114,196.800 0.600 M217.600 32.400 L 217.600 33.600 224.600 33.600 L 231.600 33.600 231.600 34.800 L 231.600 36.000 236.200 36.000 C 239.920 36.000,240.800 36.109,240.800 36.571 C 240.800 37.994,241.954 38.400,246.002 38.400 L 249.947 38.400 250.073 39.500 C 250.200 40.596,250.212 40.600,253.700 40.716 L 257.200 40.831 257.200 42.016 L 257.200 43.200 260.600 43.200 C 263.960 43.200,264.000 43.212,264.000 44.200 C 264.000 45.156,264.107 45.200,266.400 45.200 L 268.800 45.200 268.800 46.400 L 268.800 47.600 271.200 47.600 L 273.600 47.600 273.600 48.800 C 273.600 49.988,273.622 50.000,275.800 50.000 C 277.978 50.000,278.000 50.012,278.000 51.200 L 278.000 52.400 280.400 52.400 L 282.800 52.400 282.800 53.600 C 282.800 54.660,282.936 54.800,283.972 54.800 C 284.883 54.800,285.173 55.000,285.272 55.700 C 285.384 56.484,285.671 56.616,287.500 56.721 C 289.531 56.838,289.600 56.881,289.600 58.021 C 289.600 59.195,289.609 59.200,292.000 59.200 L 294.400 59.200 294.400 60.400 C 294.400 61.467,294.533 61.600,295.600 61.600 C 296.667 61.600,296.800 61.733,296.800 62.800 C 296.800 63.813,296.956 64.000,297.800 64.000 C 298.400 64.000,298.820 64.240,298.850 64.600 C 298.877 64.930,298.923 65.425,298.950 65.700 C 298.982 66.021,299.826 66.243,301.300 66.320 C 303.553 66.437,303.600 66.464,303.600 67.620 C 303.600 68.664,303.738 68.800,304.800 68.800 C 305.813 68.800,306.000 68.956,306.000 69.800 C 306.000 70.644,306.187 70.800,307.200 70.800 C 308.267 70.800,308.400 70.933,308.400 72.000 C 308.400 73.067,308.533 73.200,309.600 73.200 C 310.667 73.200,310.800 73.333,310.800 74.400 C 310.800 75.413,310.956 75.600,311.800 75.600 C 312.400 75.600,312.820 75.840,312.850 76.200 C 312.878 76.530,312.923 77.025,312.950 77.300 C 312.982 77.621,313.826 77.843,315.300 77.920 L 317.600 78.040 317.600 80.220 L 317.600 82.400 320.000 82.400 L 322.400 82.400 322.400 84.800 C 322.400 87.076,322.450 87.200,323.373 87.200 C 324.138 87.200,324.374 87.436,324.473 88.300 C 324.572 89.157,324.838 89.427,325.676 89.524 C 326.507 89.620,326.780 89.893,326.876 90.724 C 326.973 91.562,327.243 91.828,328.100 91.927 C 328.964 92.026,329.200 92.262,329.200 93.027 C 329.200 93.841,329.395 94.000,330.400 94.000 C 331.467 94.000,331.600 94.133,331.600 95.200 C 331.600 96.267,331.733 96.400,332.800 96.400 L 334.000 96.400 334.000 98.800 C 334.000 101.076,334.050 101.200,334.973 101.200 C 335.738 101.200,335.974 101.436,336.073 102.300 C 336.172 103.157,336.438 103.427,337.276 103.524 C 338.107 103.620,338.380 103.893,338.476 104.724 C 338.573 105.562,338.843 105.828,339.700 105.927 C 340.750 106.047,340.800 106.153,340.800 108.227 C 340.800 110.375,340.814 110.400,342.000 110.400 C 343.144 110.400,343.200 110.479,343.206 112.100 C 343.213 114.083,343.501 114.652,344.600 114.857 C 345.170 114.964,345.436 115.379,345.525 116.303 C 345.635 117.443,345.793 117.600,346.825 117.600 C 347.983 117.600,348.000 117.633,348.000 119.800 C 348.000 121.868,348.059 122.000,348.980 122.000 C 349.893 122.000,349.968 122.158,350.080 124.300 C 350.194 126.477,350.259 126.607,351.300 126.727 C 352.350 126.847,352.400 126.953,352.400 129.027 C 352.400 131.175,352.414 131.200,353.600 131.200 L 354.800 131.200 354.800 133.600 L 354.800 136.000 356.000 136.000 L 357.200 136.000 357.200 139.600 L 357.200 143.200 358.400 143.200 L 359.600 143.200 359.600 146.600 C 359.600 149.960,359.612 150.000,360.600 150.000 C 361.588 150.000,361.600 150.040,361.600 153.400 L 361.600 156.800 362.800 156.800 L 364.000 156.800 364.040 161.500 C 364.087 167.084,364.319 168.155,365.516 168.328 C 366.389 168.454,366.400 168.541,366.400 175.428 L 366.400 182.400 367.600 182.400 L 368.800 182.400 368.800 200.000 L 368.800 217.600 367.600 217.600 L 366.400 217.600 366.400 225.800 L 366.400 234.000 365.200 234.000 L 364.000 234.000 364.000 238.600 L 364.000 243.200 362.800 243.200 L 361.600 243.200 361.600 246.600 C 361.600 249.960,361.588 250.000,360.600 250.000 C 359.607 250.000,359.600 250.027,359.600 253.600 L 359.600 257.200 358.400 257.200 L 357.200 257.200 357.200 260.600 L 357.200 264.000 356.000 264.000 L 354.800 264.000 354.800 266.400 L 354.800 268.800 353.600 268.800 L 352.400 268.800 352.400 271.200 L 352.400 273.600 351.200 273.600 C 350.012 273.600,350.000 273.622,350.000 275.800 C 350.000 277.880,349.945 278.000,349.000 278.000 C 348.044 278.000,348.000 278.107,348.000 280.400 L 348.000 282.800 346.800 282.800 C 345.612 282.800,345.600 282.822,345.600 285.000 C 345.600 287.178,345.588 287.200,344.400 287.200 C 343.333 287.200,343.200 287.333,343.200 288.400 C 343.200 289.467,343.067 289.600,342.000 289.600 L 340.800 289.600 340.800 292.000 L 340.800 294.400 339.600 294.400 C 338.533 294.400,338.400 294.533,338.400 295.600 C 338.400 296.661,338.264 296.800,337.227 296.800 C 336.244 296.800,336.033 296.979,335.927 297.900 C 335.825 298.783,335.622 298.975,334.900 298.875 C 334.052 298.757,334.000 298.889,334.000 301.175 L 334.000 303.600 332.800 303.600 C 331.733 303.600,331.600 303.733,331.600 304.800 C 331.600 305.867,331.467 306.000,330.400 306.000 C 329.333 306.000,329.200 306.133,329.200 307.200 C 329.200 308.267,329.067 308.400,328.000 308.400 C 326.933 308.400,326.800 308.533,326.800 309.600 C 326.800 310.667,326.667 310.800,325.600 310.800 C 324.596 310.800,324.400 310.959,324.400 311.772 C 324.400 312.476,324.151 312.780,323.500 312.872 C 322.703 312.985,322.586 313.263,322.480 315.300 L 322.360 317.600 319.980 317.600 L 317.600 317.600 317.600 320.000 L 317.600 322.400 315.175 322.400 C 312.889 322.400,312.757 322.452,312.875 323.300 C 312.975 324.022,312.783 324.225,311.900 324.327 C 310.979 324.433,310.800 324.644,310.800 325.627 C 310.800 326.664,310.661 326.800,309.600 326.800 C 308.533 326.800,308.400 326.933,308.400 328.000 C 308.400 329.067,308.267 329.200,307.200 329.200 C 306.133 329.200,306.000 329.333,306.000 330.400 C 306.000 331.467,305.867 331.600,304.800 331.600 C 303.733 331.600,303.600 331.733,303.600 332.800 L 303.600 334.000 301.200 334.000 C 298.907 334.000,298.800 334.044,298.800 335.000 C 298.800 335.800,298.600 336.000,297.800 336.000 C 296.956 336.000,296.800 336.187,296.800 337.200 C 296.800 338.267,296.667 338.400,295.600 338.400 C 294.533 338.400,294.400 338.533,294.400 339.600 L 294.400 340.800 292.000 340.800 L 289.600 340.800 289.600 342.000 C 289.600 343.067,289.467 343.200,288.400 343.200 C 287.333 343.200,287.200 343.333,287.200 344.400 C 287.200 345.588,287.178 345.600,285.000 345.600 C 282.822 345.600,282.800 345.612,282.800 346.800 L 282.800 348.000 280.400 348.000 C 278.107 348.000,278.000 348.044,278.000 349.000 C 278.000 349.945,277.880 350.000,275.800 350.000 C 273.622 350.000,273.600 350.012,273.600 351.200 L 273.600 352.400 271.200 352.400 L 268.800 352.400 268.800 353.600 L 268.800 354.800 266.400 354.800 L 264.000 354.800 264.000 356.000 L 264.000 357.200 260.600 357.200 L 257.200 357.200 257.200 358.400 L 257.200 359.600 253.600 359.600 C 250.027 359.600,250.000 359.607,250.000 360.600 C 250.000 361.588,249.960 361.600,246.600 361.600 L 243.200 361.600 243.200 362.800 L 243.200 364.000 238.600 364.000 L 234.000 364.000 234.000 365.200 L 234.000 366.400 225.800 366.400 L 217.600 366.400 217.600 367.600 L 217.600 368.800 182.600 368.800 L 147.600 368.800 147.600 367.600 L 147.600 366.400 125.627 366.400 L 103.653 366.400 103.527 365.300 L 103.400 364.200 90.749 364.094 L 78.098 363.989 77.859 362.794 L 77.620 361.600 66.238 361.600 L 54.856 361.600 54.728 360.700 C 54.602 359.811,54.513 359.799,47.700 359.691 L 40.800 359.581 40.800 352.591 L 40.800 345.600 39.600 345.600 L 38.400 345.600 38.400 334.000 L 38.400 322.400 37.200 322.400 L 36.000 322.400 36.000 308.400 L 36.000 294.400 34.803 294.400 L 33.607 294.400 33.503 272.300 L 33.400 250.200 32.300 250.073 L 31.200 249.947 31.200 216.173 L 31.200 182.400 32.391 182.400 L 33.581 182.400 33.691 175.507 L 33.800 168.614 34.800 168.607 L 35.800 168.600 35.913 163.900 C 36.013 159.714,36.103 159.200,36.733 159.200 C 38.124 159.200,38.400 158.360,38.400 154.120 L 38.400 150.000 39.600 150.000 L 40.800 150.000 40.800 146.627 L 40.800 143.253 41.900 143.127 C 42.996 143.000,43.000 142.988,43.116 139.500 C 43.229 136.079,43.253 136.000,44.216 136.000 C 45.152 136.000,45.200 135.883,45.200 133.600 L 45.200 131.200 46.400 131.200 C 47.588 131.200,47.600 131.178,47.600 129.000 C 47.600 126.822,47.612 126.800,48.800 126.800 L 50.000 126.800 50.000 124.400 L 50.000 122.000 51.200 122.000 C 52.386 122.000,52.400 121.975,52.400 119.827 C 52.400 117.753,52.450 117.647,53.500 117.527 C 54.357 117.428,54.627 117.162,54.724 116.325 C 54.811 115.572,55.111 115.212,55.724 115.125 C 56.492 115.015,56.615 114.717,56.720 112.700 C 56.837 110.447,56.864 110.400,58.020 110.400 C 59.184 110.400,59.200 110.370,59.200 108.200 C 59.200 106.022,59.212 106.000,60.400 106.000 C 61.467 106.000,61.600 105.867,61.600 104.800 C 61.600 103.733,61.733 103.600,62.800 103.600 C 63.867 103.600,64.000 103.467,64.000 102.400 C 64.000 101.329,64.131 101.200,65.218 101.200 C 65.960 101.200,66.410 101.005,66.370 100.700 C 65.999 97.842,66.411 96.400,67.600 96.400 C 68.667 96.400,68.800 96.267,68.800 95.200 C 68.800 94.187,68.956 94.000,69.800 94.000 C 70.600 94.000,70.800 93.800,70.800 93.000 C 70.800 92.156,70.987 92.000,72.000 92.000 C 73.067 92.000,73.200 91.867,73.200 90.800 C 73.200 89.733,73.333 89.600,74.400 89.600 C 75.467 89.600,75.600 89.467,75.600 88.400 C 75.600 87.329,75.731 87.200,76.818 87.200 C 77.560 87.200,78.010 87.005,77.970 86.700 C 77.934 86.425,77.927 85.345,77.953 84.300 L 78.000 82.400 80.200 82.400 L 82.400 82.400 82.400 80.200 L 82.400 78.000 84.300 77.953 C 85.345 77.927,86.425 77.934,86.700 77.970 C 87.005 78.010,87.200 77.560,87.200 76.818 C 87.200 75.731,87.329 75.600,88.400 75.600 C 89.467 75.600,89.600 75.467,89.600 74.400 C 89.600 73.333,89.733 73.200,90.800 73.200 C 91.867 73.200,92.000 73.067,92.000 72.000 C 92.000 70.987,92.156 70.800,93.000 70.800 C 93.800 70.800,94.000 70.600,94.000 69.800 C 94.000 68.956,94.187 68.800,95.200 68.800 C 96.267 68.800,96.400 68.667,96.400 67.600 L 96.400 66.400 98.800 66.400 L 101.200 66.400 101.200 65.200 C 101.200 64.133,101.333 64.000,102.400 64.000 C 103.467 64.000,103.600 63.867,103.600 62.800 C 103.600 61.733,103.733 61.600,104.800 61.600 C 105.867 61.600,106.000 61.467,106.000 60.400 C 106.000 59.212,106.022 59.200,108.200 59.200 C 110.370 59.200,110.400 59.184,110.400 58.020 C 110.400 56.864,110.447 56.837,112.700 56.720 C 114.717 56.615,115.015 56.492,115.125 55.724 C 115.212 55.111,115.572 54.811,116.325 54.724 C 117.162 54.627,117.428 54.357,117.527 53.500 C 117.647 52.450,117.753 52.400,119.827 52.400 C 121.975 52.400,122.000 52.386,122.000 51.200 L 122.000 50.000 124.400 50.000 L 126.800 50.000 126.800 48.800 C 126.800 47.612,126.822 47.600,129.000 47.600 C 131.178 47.600,131.200 47.588,131.200 46.400 L 131.200 45.200 133.600 45.200 C 135.883 45.200,136.000 45.152,136.000 44.216 C 136.000 43.253,136.079 43.229,139.500 43.116 C 142.988 43.000,143.000 42.996,143.127 41.900 L 143.253 40.800 146.627 40.800 L 150.000 40.800 150.000 39.600 L 150.000 38.400 154.120 38.400 C 158.370 38.400,159.200 38.125,159.200 36.720 C 159.200 36.068,159.637 36.000,163.810 36.000 L 168.420 36.000 168.660 34.800 L 168.900 33.600 175.650 33.600 L 182.400 33.600 182.400 32.400 L 182.400 31.200 200.000 31.200 L 217.600 31.200 217.600 32.400 M138.400 130.400 L 138.400 131.600 135.000 131.600 L 131.600 131.600 131.600 132.780 C 131.600 133.936,131.553 133.963,129.300 134.080 C 127.283 134.185,126.985 134.308,126.875 135.076 C 126.788 135.689,126.428 135.989,125.675 136.076 C 124.838 136.173,124.572 136.443,124.473 137.300 C 124.374 138.164,124.138 138.400,123.373 138.400 C 122.559 138.400,122.400 138.595,122.400 139.600 C 122.400 140.667,122.267 140.800,121.200 140.800 C 120.133 140.800,120.000 140.933,120.000 142.000 C 120.000 143.067,119.867 143.200,118.800 143.200 L 117.600 143.200 117.600 145.600 L 117.600 148.000 116.400 148.000 C 115.214 148.000,115.200 148.025,115.200 150.173 C 115.200 152.247,115.150 152.353,114.100 152.473 L 113.000 152.600 112.887 157.100 C 112.774 161.589,112.771 161.600,111.785 161.600 L 110.796 161.600 110.898 202.300 L 111.000 243.000 111.900 243.128 C 112.752 243.249,112.800 243.435,112.800 246.628 L 112.800 250.000 113.980 250.000 C 115.136 250.000,115.163 250.047,115.280 252.300 C 115.394 254.477,115.459 254.607,116.500 254.727 C 117.550 254.847,117.600 254.953,117.600 257.027 C 117.600 259.175,117.614 259.200,118.800 259.200 C 119.867 259.200,120.000 259.333,120.000 260.400 C 120.000 261.467,120.133 261.600,121.200 261.600 C 122.267 261.600,122.400 261.733,122.400 262.800 C 122.400 263.805,122.559 264.000,123.373 264.000 C 124.138 264.000,124.374 264.236,124.473 265.100 C 124.572 265.957,124.838 266.227,125.676 266.324 C 126.507 266.420,126.780 266.693,126.876 267.524 C 126.993 268.536,127.136 268.607,129.300 268.720 C 131.442 268.832,131.600 268.907,131.600 269.820 C 131.600 270.741,131.732 270.800,133.800 270.800 C 135.978 270.800,136.000 270.812,136.000 272.000 L 136.000 273.200 139.600 273.200 L 143.200 273.200 143.200 274.400 L 143.200 275.600 193.200 275.600 L 243.200 275.600 243.200 274.400 L 243.200 273.200 247.800 273.200 L 252.400 273.200 252.400 272.000 C 252.400 270.812,252.422 270.800,254.600 270.800 C 256.668 270.800,256.800 270.741,256.800 269.820 C 256.800 268.907,256.958 268.832,259.100 268.720 C 261.277 268.606,261.407 268.541,261.527 267.500 C 261.633 266.579,261.844 266.400,262.827 266.400 C 263.864 266.400,264.000 266.261,264.000 265.200 C 264.000 264.133,264.133 264.000,265.200 264.000 C 266.267 264.000,266.400 263.867,266.400 262.800 C 266.400 261.733,266.533 261.600,267.600 261.600 L 268.800 261.600 268.800 259.200 C 268.800 256.907,268.844 256.800,269.800 256.800 C 270.600 256.800,270.800 256.600,270.800 255.800 C 270.800 254.959,270.988 254.800,271.981 254.800 C 273.150 254.800,273.163 254.775,273.281 252.306 C 273.394 249.946,273.454 249.812,274.400 249.806 L 275.400 249.800 275.505 202.300 L 275.609 154.800 274.405 154.800 L 273.200 154.800 273.200 151.400 L 273.200 148.000 272.000 148.000 C 270.933 148.000,270.800 147.867,270.800 146.800 C 270.800 145.787,270.644 145.600,269.800 145.600 C 268.919 145.600,268.795 145.422,268.757 144.100 C 268.672 141.078,268.644 141.005,267.524 140.876 C 266.693 140.780,266.420 140.507,266.324 139.676 C 266.227 138.838,265.957 138.572,265.100 138.473 C 264.179 138.367,264.000 138.156,264.000 137.173 C 264.000 136.006,263.988 136.000,261.600 136.000 C 259.307 136.000,259.200 135.956,259.200 135.000 C 259.200 134.156,259.013 134.000,258.000 134.000 C 256.933 134.000,256.800 133.867,256.800 132.800 L 256.800 131.600 253.400 131.600 L 250.000 131.600 250.000 130.400 L 250.000 129.200 194.200 129.200 L 138.400 129.200 138.400 130.400 M157.200 181.400 C 157.200 182.345,157.320 182.400,159.400 182.400 C 161.578 182.400,161.600 182.412,161.600 183.600 C 161.600 184.667,161.733 184.800,162.800 184.800 C 163.867 184.800,164.000 184.933,164.000 186.000 C 164.000 187.067,164.133 187.200,165.200 187.200 C 166.267 187.200,166.400 187.333,166.400 188.400 C 166.400 189.467,166.533 189.600,167.600 189.600 C 168.788 189.600,168.800 189.622,168.800 191.800 C 168.800 193.978,168.812 194.000,170.000 194.000 C 171.067 194.000,171.200 194.133,171.200 195.200 C 171.200 196.388,171.222 196.400,173.400 196.400 C 175.578 196.400,175.600 196.412,175.600 197.600 C 175.600 198.667,175.733 198.800,176.800 198.800 C 177.867 198.800,178.000 198.933,178.000 200.000 L 178.000 201.200 181.600 201.200 L 185.200 201.200 185.200 202.408 L 185.200 203.615 194.300 203.508 L 203.400 203.400 203.527 202.300 C 203.647 201.250,203.753 201.200,205.827 201.200 C 207.975 201.200,208.000 201.186,208.000 200.000 L 208.000 198.800 210.400 198.800 L 212.800 198.800 212.800 197.600 C 212.800 196.533,212.933 196.400,214.000 196.400 C 215.067 196.400,215.200 196.267,215.200 195.200 C 215.200 194.133,215.333 194.000,216.400 194.000 C 217.413 194.000,217.600 193.844,217.600 193.000 C 217.600 192.200,217.800 192.000,218.600 192.000 C 219.444 192.000,219.600 191.813,219.600 190.800 C 219.600 189.733,219.733 189.600,220.800 189.600 L 222.000 189.600 222.000 187.200 L 222.000 184.800 223.200 184.800 C 224.267 184.800,224.400 184.667,224.400 183.600 L 224.400 182.400 226.800 182.400 C 229.093 182.400,229.200 182.356,229.200 181.400 C 229.200 180.412,229.240 180.400,232.600 180.400 C 235.960 180.400,236.000 180.412,236.000 181.400 C 236.000 182.356,236.107 182.400,238.400 182.400 L 240.800 182.400 240.800 183.600 C 240.800 184.667,240.933 184.800,242.000 184.800 L 243.200 184.800 243.200 187.200 L 243.200 189.600 244.400 189.600 L 245.600 189.600 245.600 194.200 L 245.600 198.800 244.400 198.800 C 243.345 198.800,243.200 198.939,243.200 199.950 C 243.200 200.908,242.999 201.140,242.000 201.340 C 240.840 201.572,240.800 201.654,240.800 203.790 C 240.800 205.979,240.789 206.000,239.600 206.000 C 238.533 206.000,238.400 206.133,238.400 207.200 C 238.400 208.267,238.267 208.400,237.200 208.400 C 236.133 208.400,236.000 208.533,236.000 209.600 C 236.000 210.613,235.844 210.800,235.000 210.800 C 234.200 210.800,234.000 211.000,234.000 211.800 C 234.000 212.644,233.813 212.800,232.800 212.800 C 231.733 212.800,231.600 212.933,231.600 214.000 C 231.600 215.067,231.467 215.200,230.400 215.200 C 229.333 215.200,229.200 215.333,229.200 216.400 C 229.200 217.467,229.067 217.600,228.000 217.600 C 226.933 217.600,226.800 217.733,226.800 218.800 C 226.800 219.988,226.778 220.000,224.600 220.000 C 222.422 220.000,222.400 220.012,222.400 221.200 L 222.400 222.400 220.000 222.400 C 217.720 222.400,217.600 222.449,217.600 223.380 C 217.600 224.293,217.442 224.368,215.300 224.480 C 213.123 224.594,212.993 224.659,212.873 225.700 L 212.747 226.800 208.173 226.800 L 203.600 226.800 203.600 228.000 L 203.600 229.200 194.227 229.200 L 184.853 229.200 184.727 228.100 C 184.586 226.875,184.907 226.949,179.300 226.859 L 175.600 226.800 175.600 225.600 L 175.600 224.400 173.200 224.400 C 170.907 224.400,170.800 224.356,170.800 223.400 C 170.800 222.455,170.680 222.400,168.600 222.400 C 166.422 222.400,166.400 222.388,166.400 221.200 L 166.400 220.000 164.000 220.000 L 161.600 220.000 161.600 218.800 C 161.600 217.733,161.467 217.600,160.400 217.600 C 159.333 217.600,159.200 217.467,159.200 216.400 C 159.200 215.333,159.067 215.200,158.000 215.200 C 156.933 215.200,156.800 215.067,156.800 214.000 C 156.800 212.940,156.664 212.800,155.628 212.800 C 154.717 212.800,154.427 212.600,154.328 211.900 C 154.246 211.322,153.878 210.954,153.300 210.872 C 152.600 210.773,152.400 210.483,152.400 209.572 C 152.400 208.536,152.260 208.400,151.200 208.400 C 150.133 208.400,150.000 208.267,150.000 207.200 C 150.000 206.133,149.867 206.000,148.800 206.000 C 147.733 206.000,147.600 205.867,147.600 204.800 C 147.600 203.733,147.467 203.600,146.400 203.600 L 145.200 203.600 145.200 201.200 C 145.200 198.907,145.156 198.800,144.200 198.800 L 143.200 198.800 143.200 193.000 L 143.200 187.200 144.200 187.200 C 145.044 187.200,145.200 187.013,145.200 186.000 C 145.200 184.933,145.333 184.800,146.400 184.800 C 147.467 184.800,147.600 184.667,147.600 183.600 L 147.600 182.400 150.000 182.400 C 152.293 182.400,152.400 182.356,152.400 181.400 C 152.400 180.444,152.507 180.400,154.800 180.400 C 157.093 180.400,157.200 180.444,157.200 181.400 M397.714 223.442 C 397.227 223.969,396.989 224.400,397.186 224.400 C 397.656 224.400,398.800 223.245,398.800 222.771 C 398.800 222.288,398.758 222.313,397.714 223.442 " stroke="none" fill="#ffffff" fill-rule="evenodd"></path></g></svg>