<svg id="svg" version="1.1" xmlns="http://www.w3.org/2000/svg" xmlns:xlink="http://www.w3.org/1999/xlink" width="400" height="128.23880597014926" viewBox="0, 0, 400,128.23880597014926"><g id="svgg"><path id="path0" d="M70.917 13.107 C 62.094 13.760,56.983 16.579,54.042 22.417 C 50.829 28.792,51.516 36.428,57.415 59.917 C 61.235 75.127,61.480 76.586,60.734 79.656 C 59.626 84.212,55.270 87.748,52.741 86.144 C 45.861 81.778,38.440 82.957,34.906 88.976 C 28.247 100.320,42.054 114.106,59.417 113.448 C 74.116 112.891,85.083 104.829,85.079 94.583 C 85.076 85.367,77.152 79.968,66.626 82.011 C 64.281 82.466,64.410 82.559,64.861 80.733 C 65.773 77.045,65.418 74.162,62.753 63.614 C 61.984 60.572,60.833 56.021,60.195 53.500 C 59.557 50.979,58.810 47.845,58.534 46.535 L 58.033 44.153 58.392 43.918 C 58.589 43.789,59.407 43.380,60.211 43.009 C 72.317 37.417,76.176 32.037,76.179 20.750 C 76.180 13.164,75.888 12.739,70.917 13.107 M71.743 21.250 C 71.725 30.099,69.805 32.934,60.390 38.007 C 56.748 39.969,56.446 39.601,58.184 35.323 C 60.254 30.228,63.493 26.036,67.273 23.559 C 68.689 22.631,68.833 22.454,68.833 21.653 C 68.833 17.909,61.432 23.597,57.593 30.292 C 57.159 31.048,56.728 31.667,56.635 31.667 C 56.250 31.667,56.792 27.599,57.442 25.612 C 59.036 20.742,64.595 17.376,70.750 17.554 L 71.750 17.583 71.743 21.250 M29.417 47.184 C 19.131 48.139,10.604 51.611,5.045 57.107 C 3.321 58.812,3.357 58.700,3.230 62.632 C 1.954 101.935,41.043 130.201,78.973 117.403 C 101.930 109.657,117.207 88.569,117.239 64.583 C 117.246 59.274,117.219 59.079,116.457 58.859 C 116.160 58.774,115.309 58.440,114.566 58.119 C 103.228 53.207,89.593 54.357,78.227 61.185 C 76.565 62.184,76.957 62.242,74.843 60.681 C 72.126 58.675,70.155 57.445,69.963 57.637 C 69.576 58.024,69.909 67.102,70.374 68.846 C 71.541 73.226,74.055 76.155,78.667 78.510 C 96.254 87.493,95.349 105.431,76.910 113.343 C 58.944 121.052,34.912 114.395,30.148 100.389 C 27.343 92.141,31.676 84.057,41.833 78.588 C 45.790 76.458,47.771 74.486,49.316 71.141 C 50.602 68.355,50.583 68.541,50.583 58.250 L 50.583 49.083 49.083 48.701 C 43.489 47.274,35.273 46.641,29.417 47.184 M74.083 86.250 C 79.839 87.729,82.419 93.521,79.743 98.959 C 75.284 108.020,57.801 112.067,46.819 106.581 C 40.797 103.573,36.852 98.169,37.628 93.993 C 38.722 88.114,44.473 86.118,50.086 89.670 C 53.038 91.538,54.685 91.516,58.682 89.553 C 65.300 86.305,70.202 85.253,74.083 86.250 M77.535 94.594 C 77.330 94.738,77.003 95.169,76.809 95.553 C 71.090 106.848,50.026 108.527,43.668 98.194 C 42.891 96.932,42.267 96.694,41.439 97.345 C 39.780 98.650,43.374 103.089,47.956 105.395 C 55.265 109.073,66.644 108.242,73.333 103.542 C 75.798 101.810,79.119 97.730,79.435 96.045 C 79.664 94.823,78.489 93.926,77.535 94.594 " stroke="none" fill="#0c0e0e" fill-rule="evenodd"></path><path id="path1" d="M54.833 8.930 C 29.423 11.690,9.444 29.144,4.346 53.039 C 3.745 55.858,3.769 55.892,5.398 54.452 C 15.785 45.271,31.833 42.389,49.565 46.520 C 52.109 47.113,52.046 47.151,51.653 45.250 C 51.482 44.425,51.152 42.587,50.919 41.167 C 50.686 39.746,50.415 38.133,50.317 37.583 C 49.938 35.462,49.934 29.104,50.311 27.049 C 51.460 20.782,54.151 16.952,59.870 13.444 C 62.725 11.692,73.495 10.047,75.459 11.062 C 77.910 12.330,78.640 14.937,78.452 21.750 C 78.144 32.869,74.491 38.180,63.152 43.996 C 60.556 45.327,60.538 45.348,60.811 46.559 C 60.917 47.031,61.163 48.112,61.357 48.962 L 61.709 50.507 64.980 52.141 C 68.693 53.996,71.527 55.654,74.667 57.809 L 76.834 59.296 79.792 57.827 C 91.594 51.966,103.622 51.230,114.500 55.704 C 116.775 56.639,116.667 56.623,116.667 56.038 C 116.667 52.222,113.089 42.280,109.607 36.417 C 100.842 21.663,86.604 12.267,68.417 9.236 C 66.838 8.973,56.569 8.742,54.833 8.930 M70.653 12.832 C 64.145 13.336,60.454 14.705,57.071 17.870 C 50.727 23.804,50.317 33.017,55.484 53.500 C 56.028 55.654,57.110 59.929,57.889 63.000 C 61.101 75.657,61.298 77.239,60.091 80.709 C 58.743 84.585,54.969 87.224,52.769 85.828 C 44.232 80.414,34.935 83.797,33.074 92.994 C 31.654 100.015,37.712 108.154,47.041 111.757 C 60.833 117.083,79.746 111.242,84.326 100.243 C 88.873 89.319,79.633 79.164,67.333 81.568 C 64.601 82.101,64.763 82.090,64.900 81.735 C 66.389 77.860,65.873 74.357,61.084 55.833 C 59.205 48.563,58.302 44.397,58.562 44.193 C 58.665 44.112,60.044 43.390,61.626 42.588 C 73.042 36.801,76.219 32.347,76.458 21.793 C 76.657 13.018,76.255 12.398,70.653 12.832 M75.085 13.500 C 75.949 14.309,76.180 15.837,76.179 20.750 C 76.176 32.037,72.317 37.417,60.211 43.009 C 59.407 43.380,58.589 43.789,58.392 43.918 L 58.033 44.153 58.534 46.535 C 58.810 47.845,59.557 50.979,60.195 53.500 C 65.318 73.743,65.226 73.316,65.227 76.750 C 65.228 78.767,65.157 79.536,64.861 80.733 C 64.410 82.559,64.281 82.466,66.626 82.011 C 77.152 79.968,85.076 85.367,85.079 94.583 C 85.083 104.829,74.116 112.891,59.417 113.448 C 42.054 114.106,28.247 100.320,34.906 88.976 C 38.440 82.957,45.861 81.778,52.741 86.144 C 55.270 87.748,59.626 84.212,60.734 79.656 C 61.480 76.586,61.235 75.127,57.415 59.917 C 52.023 38.449,51.133 31.210,53.101 24.833 C 54.559 20.108,58.218 16.247,62.791 14.607 C 66.685 13.211,74.066 12.546,75.085 13.500 M68.250 17.756 C 61.584 18.779,57.795 22.157,56.852 27.917 C 56.567 29.658,56.450 31.667,56.635 31.667 C 56.728 31.667,57.159 31.048,57.593 30.292 C 61.432 23.597,68.833 17.909,68.833 21.653 C 68.833 22.454,68.689 22.631,67.273 23.559 C 63.493 26.036,60.254 30.228,58.184 35.323 C 56.446 39.601,56.748 39.969,60.390 38.007 C 69.805 32.934,71.725 30.099,71.743 21.250 L 71.750 17.583 70.750 17.554 C 70.200 17.538,69.075 17.629,68.250 17.756 M29.417 46.843 C 19.001 47.897,10.462 51.361,4.951 56.769 C 3.228 58.460,3.236 58.441,3.027 61.755 C 0.738 98.136,35.300 127.000,72.167 119.494 C 98.666 114.100,117.403 91.347,117.414 64.550 C 117.417 58.434,117.584 59.029,115.643 58.225 C 102.723 52.870,89.815 53.800,78.064 60.934 C 76.591 61.828,76.953 61.878,75.125 60.523 C 73.219 59.109,70.267 57.167,70.025 57.167 C 69.400 57.167,69.301 65.630,69.896 68.167 C 71.086 73.241,73.353 76.016,78.592 78.810 C 102.109 91.355,89.970 116.247,60.333 116.247 C 30.872 116.247,18.544 91.453,41.788 78.950 C 45.753 76.817,47.843 74.809,49.454 71.583 C 50.912 68.664,51.000 67.875,51.000 57.711 L 51.000 48.983 50.448 48.753 C 49.694 48.437,44.544 47.414,42.000 47.073 C 39.570 46.748,31.767 46.606,29.417 46.843 M39.888 47.180 C 42.323 47.397,47.009 48.172,49.083 48.701 L 50.583 49.083 50.583 58.250 C 50.583 68.541,50.602 68.355,49.316 71.141 C 47.771 74.486,45.790 76.458,41.833 78.588 C 18.201 91.311,30.506 116.583,60.333 116.583 C 90.177 116.583,102.620 90.744,78.667 78.510 C 74.055 76.155,71.541 73.226,70.374 68.846 C 69.909 67.102,69.576 58.024,69.963 57.637 C 70.155 57.445,72.126 58.675,74.843 60.681 C 76.957 62.242,76.565 62.184,78.227 61.185 C 89.593 54.357,103.228 53.207,114.566 58.119 C 115.309 58.440,116.160 58.774,116.457 58.859 C 117.219 59.079,117.246 59.274,117.239 64.583 C 117.187 103.838,77.311 130.739,39.833 116.802 C 17.151 108.367,2.451 86.613,3.230 62.632 C 3.357 58.700,3.321 58.812,5.045 57.107 C 12.488 49.749,25.876 45.934,39.888 47.180 M69.083 86.010 C 66.061 86.416,62.831 87.517,58.682 89.553 C 54.685 91.516,53.038 91.538,50.086 89.670 C 44.473 86.118,38.722 88.114,37.628 93.993 C 36.852 98.169,40.797 103.573,46.819 106.581 C 57.801 112.067,75.284 108.020,79.743 98.959 C 83.311 91.708,77.670 84.857,69.083 86.010 M78.724 94.518 C 81.265 95.676,76.255 102.283,70.718 105.075 C 64.075 108.426,54.253 108.563,47.956 105.395 C 43.374 103.089,39.780 98.650,41.439 97.345 C 42.267 96.694,42.891 96.932,43.668 98.194 C 50.026 108.527,71.090 106.848,76.809 95.553 C 77.361 94.464,77.929 94.156,78.724 94.518 " stroke="none" fill="#92c9f1" fill-rule="evenodd"></path><path id="path2" d="M53.917 5.516 C 51.533 5.780,50.048 5.993,48.750 6.259 C 46.535 6.711,44.436 7.193,44.083 7.330 C 43.900 7.400,43.112 7.630,42.333 7.840 C 40.636 8.297,38.272 9.166,38.194 9.362 C 38.163 9.439,38.075 9.463,37.997 9.415 C 37.920 9.367,37.607 9.434,37.303 9.564 C 36.999 9.694,36.431 9.931,36.042 10.092 C 35.652 10.252,35.333 10.452,35.333 10.535 C 35.333 10.618,35.264 10.643,35.179 10.591 C 34.987 10.472,34.167 10.833,34.167 11.037 C 34.167 11.119,34.102 11.147,34.024 11.098 C 33.558 10.810,23.942 16.553,24.297 16.908 C 24.363 16.974,24.331 17.003,24.225 16.972 C 23.801 16.849,18.510 21.176,18.629 21.548 C 18.654 21.627,18.612 21.653,18.535 21.605 C 18.347 21.488,14.744 25.169,13.043 27.216 C 8.352 32.862,3.834 41.387,2.071 47.917 C 1.947 48.375,1.724 49.200,1.575 49.750 C 1.170 51.248,0.693 53.537,0.378 55.500 C -0.027 58.022,-0.033 71.104,0.369 73.583 C 0.724 75.768,1.149 78.020,1.266 78.333 C 1.318 78.471,1.543 79.296,1.768 80.167 C 3.364 86.359,8.157 96.243,11.108 99.427 C 11.323 99.660,11.500 99.892,11.500 99.943 C 11.500 100.280,14.810 104.108,15.041 104.038 C 15.124 104.012,15.152 104.055,15.105 104.132 C 15.007 104.290,19.049 108.322,20.583 109.597 C 22.238 110.972,24.446 112.650,24.668 112.702 C 24.783 112.728,25.038 112.906,25.235 113.096 C 25.533 113.383,26.393 113.947,28.667 115.344 C 38.560 121.423,51.017 124.550,63.083 123.983 C 66.923 123.803,72.624 123.048,73.094 122.658 C 73.197 122.573,73.323 122.545,73.375 122.598 C 73.695 122.917,81.921 120.315,84.833 118.973 C 89.893 116.642,92.657 115.038,96.667 112.106 C 100.831 109.060,108.438 101.607,108.204 100.800 C 108.179 100.713,108.235 100.689,108.328 100.747 C 108.422 100.805,108.586 100.660,108.693 100.426 C 108.799 100.192,108.950 100.000,109.027 100.000 C 109.104 100.000,109.167 99.894,109.167 99.764 C 109.167 99.634,109.227 99.503,109.300 99.472 C 109.374 99.442,109.889 98.774,110.445 97.988 C 113.772 93.284,116.910 86.725,118.492 81.167 C 118.688 80.479,118.958 79.552,119.091 79.106 C 119.224 78.660,119.333 78.157,119.333 77.989 C 119.333 77.820,119.409 77.510,119.501 77.300 C 119.688 76.872,120.067 74.681,120.432 71.917 C 121.068 67.101,120.993 60.594,120.247 55.833 C 119.845 53.273,119.641 52.189,119.501 51.867 C 119.409 51.657,119.333 51.346,119.333 51.178 C 119.333 51.009,119.226 50.507,119.094 50.061 C 116.848 42.452,114.895 38.057,111.273 32.455 C 109.900 30.333,108.588 28.583,106.500 26.089 C 103.114 22.045,97.043 16.964,92.002 13.954 C 89.380 12.389,84.075 9.767,83.833 9.917 C 83.741 9.973,83.667 9.932,83.667 9.825 C 83.667 9.718,83.554 9.674,83.417 9.727 C 83.279 9.780,83.167 9.755,83.167 9.673 C 83.167 9.590,82.998 9.472,82.792 9.409 C 82.585 9.347,82.192 9.201,81.917 9.084 C 78.324 7.557,72.086 6.116,66.417 5.504 C 64.791 5.328,55.533 5.337,53.917 5.516 M68.417 9.236 C 86.604 12.267,100.842 21.663,109.607 36.417 C 113.089 42.280,116.667 52.222,116.667 56.038 C 116.667 56.623,116.775 56.639,114.500 55.704 C 103.622 51.230,91.594 51.966,79.792 57.827 L 76.834 59.296 74.667 57.809 C 71.527 55.654,68.693 53.996,64.980 52.141 L 61.709 50.507 61.357 48.962 C 60.438 44.934,60.236 45.491,63.152 43.996 C 74.491 38.180,78.144 32.869,78.452 21.750 C 78.640 14.937,77.910 12.330,75.459 11.062 C 73.495 10.047,62.725 11.692,59.870 13.444 C 54.151 16.952,51.460 20.782,50.311 27.049 C 49.934 29.104,49.938 35.462,50.317 37.583 C 50.415 38.133,50.686 39.746,50.919 41.167 C 51.152 42.587,51.482 44.425,51.653 45.250 C 52.046 47.151,52.109 47.113,49.565 46.520 C 41.840 44.720,34.838 44.251,28.000 45.076 C 18.356 46.239,11.448 49.105,5.398 54.452 C 3.769 55.892,3.745 55.858,4.346 53.039 C 9.444 29.144,29.423 11.690,54.833 8.930 C 56.569 8.742,66.838 8.973,68.417 9.236 M75.049 13.076 C 76.257 13.868,76.591 15.932,76.458 21.793 C 76.219 32.347,73.042 36.801,61.626 42.588 C 60.044 43.390,58.665 44.112,58.562 44.193 C 58.302 44.397,59.205 48.563,61.084 55.833 C 65.873 74.357,66.389 77.860,64.900 81.735 C 64.763 82.090,64.601 82.101,67.333 81.568 C 79.633 79.164,88.873 89.319,84.326 100.243 C 79.746 111.242,60.833 117.083,47.041 111.757 C 37.712 108.154,31.654 100.015,33.074 92.994 C 34.935 83.797,44.232 80.414,52.769 85.828 C 54.969 87.224,58.743 84.585,60.091 80.709 C 61.298 77.239,61.101 75.657,57.889 63.000 C 54.826 50.931,54.469 49.446,53.671 45.500 C 51.282 33.679,51.278 27.641,53.653 22.572 C 55.716 18.171,59.939 14.819,64.851 13.685 C 68.921 12.746,74.075 12.438,75.049 13.076 M324.917 28.009 C 323.542 28.087,321.958 28.230,321.397 28.326 C 320.837 28.422,319.782 28.500,319.054 28.500 C 316.843 28.500,316.839 28.514,317.018 34.336 C 317.196 40.105,317.197 55.206,317.020 55.139 C 316.939 55.108,316.274 54.539,315.541 53.874 C 311.259 49.989,308.309 48.719,303.166 48.548 C 296.639 48.331,291.151 50.463,286.774 54.917 C 285.320 56.396,283.067 59.511,283.290 59.734 C 283.344 59.789,283.303 59.833,283.198 59.833 C 283.010 59.833,282.445 60.937,281.619 62.917 C 280.905 64.627,280.339 66.687,280.153 68.250 C 280.055 69.075,279.901 70.012,279.811 70.333 C 279.261 72.284,280.124 80.887,281.039 82.567 C 281.144 82.759,281.239 83.031,281.251 83.171 C 281.283 83.560,281.731 84.500,281.884 84.500 C 281.959 84.500,281.973 84.576,281.916 84.669 C 281.658 85.086,284.206 89.228,285.971 91.261 C 289.182 94.959,295.007 98.307,298.254 98.320 C 298.435 98.320,299.371 98.405,300.333 98.509 C 306.223 99.140,311.869 97.061,316.667 92.495 L 317.750 91.463 317.856 93.107 C 318.151 97.675,318.337 97.886,321.699 97.470 C 322.932 97.317,323.761 97.315,325.199 97.460 C 326.460 97.587,327.331 97.597,327.833 97.489 C 328.246 97.401,328.765 97.301,328.988 97.267 C 329.810 97.143,330.149 94.994,329.670 92.949 C 328.948 89.873,328.987 46.902,329.712 45.729 C 329.816 45.561,330.083 34.864,330.083 30.879 C 330.083 27.669,330.154 27.709,324.917 28.009 M162.160 28.062 C 162.111 28.111,161.436 28.183,160.661 28.221 C 159.002 28.304,156.871 28.619,156.461 28.843 C 156.301 28.929,156.055 29.000,155.914 29.000 C 154.589 29.000,150.288 31.176,148.319 32.843 C 147.162 33.823,147.000 33.990,147.000 34.206 C 147.000 34.307,146.956 34.345,146.903 34.292 C 146.716 34.105,145.415 35.673,144.347 37.372 C 140.456 43.556,140.591 53.233,144.645 58.721 C 145.022 59.231,145.462 59.725,145.624 59.819 C 145.785 59.913,145.847 59.992,145.761 59.995 C 145.530 60.002,147.470 61.783,148.316 62.341 C 148.719 62.606,149.124 62.776,149.217 62.719 C 149.309 62.662,149.342 62.685,149.289 62.771 C 149.205 62.907,150.745 63.830,157.371 67.618 C 158.206 68.095,158.951 68.447,159.028 68.400 C 159.104 68.352,159.167 68.386,159.167 68.475 C 159.167 68.564,159.667 68.953,160.278 69.339 C 168.378 74.455,165.183 84.215,155.167 84.953 C 154.571 84.997,154.008 85.082,153.917 85.141 C 153.623 85.333,149.342 85.258,146.401 85.010 C 141.694 84.613,141.451 84.890,142.752 89.167 C 143.184 90.586,143.830 93.641,143.933 94.750 C 144.242 98.070,144.917 98.390,151.385 98.279 C 155.458 98.209,156.233 98.123,159.250 97.406 C 163.178 96.472,166.792 94.820,169.838 92.566 C 171.271 91.505,174.208 88.555,174.509 87.875 C 174.640 87.577,174.798 87.333,174.858 87.333 C 174.919 87.333,175.178 86.977,175.434 86.542 C 176.845 84.142,177.610 81.998,178.184 78.836 C 178.397 77.662,178.283 71.222,178.039 70.667 C 177.938 70.438,177.728 69.819,177.572 69.292 C 177.416 68.765,177.219 68.333,177.134 68.333 C 177.049 68.333,177.027 68.258,177.084 68.165 C 177.207 67.966,176.185 65.896,175.441 64.837 C 173.991 62.775,170.133 59.611,169.068 59.611 C 168.939 59.611,168.833 59.544,168.833 59.462 C 168.833 59.381,168.758 59.360,168.667 59.417 C 168.575 59.473,168.500 59.442,168.500 59.347 C 168.500 59.149,167.501 58.591,167.497 58.787 C 167.496 58.858,167.440 58.832,167.372 58.728 C 167.249 58.536,166.763 58.261,163.750 56.671 C 162.833 56.187,161.399 55.428,160.564 54.985 C 159.728 54.541,158.996 54.213,158.939 54.256 C 158.881 54.299,158.871 54.283,158.918 54.221 C 158.964 54.160,158.717 53.916,158.369 53.680 C 155.074 51.443,154.025 49.255,154.649 45.923 C 155.752 40.034,161.570 39.161,172.708 43.213 C 173.327 43.438,173.833 43.591,173.833 43.552 C 173.833 43.513,174.000 43.598,174.204 43.741 C 175.332 44.531,176.207 43.901,177.244 41.549 C 178.262 39.242,179.273 37.211,180.236 35.542 C 181.136 33.982,181.151 33.850,180.512 33.123 C 180.057 32.604,176.957 30.833,176.504 30.833 C 176.392 30.833,176.064 30.727,175.775 30.598 C 174.869 30.192,173.309 29.713,171.667 29.338 C 170.796 29.138,169.821 28.905,169.500 28.820 C 168.827 28.641,166.585 28.317,165.530 28.247 C 165.134 28.221,164.234 28.148,163.530 28.086 C 162.826 28.024,162.209 28.013,162.160 28.062 M362.500 28.609 C 361.721 28.631,359.696 28.739,358.000 28.849 C 355.606 29.004,353.163 29.003,347.071 28.848 C 336.325 28.573,337.103 27.956,337.844 36.167 C 338.079 38.763,338.294 44.604,338.525 54.618 C 338.743 64.087,338.624 70.089,337.818 90.258 C 337.516 97.816,337.161 97.340,343.068 97.292 C 345.976 97.269,347.949 97.331,349.025 97.480 C 352.114 97.909,352.436 97.531,352.271 93.670 C 352.210 92.247,352.123 90.146,352.078 89.000 C 352.032 87.854,351.917 86.034,351.822 84.956 C 351.307 79.122,351.155 79.299,356.514 79.511 C 364.201 79.815,370.878 79.883,372.681 79.674 C 375.574 79.338,380.167 78.089,380.167 77.638 C 380.167 77.551,380.226 77.517,380.299 77.562 C 380.797 77.870,384.419 75.425,386.431 73.423 C 388.935 70.931,391.820 66.336,391.534 65.292 C 391.515 65.223,391.561 65.167,391.635 65.167 C 391.709 65.167,391.894 64.735,392.045 64.208 C 392.196 63.681,392.405 62.950,392.510 62.583 C 393.353 59.629,393.763 53.615,393.333 50.500 C 393.047 48.427,392.824 47.248,392.662 46.961 C 392.573 46.801,392.500 46.567,392.500 46.440 C 392.500 44.473,389.371 38.788,386.791 36.069 C 384.414 33.563,379.295 30.028,378.636 30.436 C 378.561 30.482,378.500 30.440,378.500 30.343 C 378.500 30.246,378.365 30.167,378.200 30.167 C 378.035 30.167,377.829 30.099,377.742 30.016 C 377.382 29.675,374.729 29.069,371.833 28.667 C 370.856 28.532,366.180 28.502,362.500 28.609 M369.689 39.727 C 373.244 40.599,375.910 42.520,377.932 45.667 C 378.197 46.079,378.489 46.472,378.582 46.539 C 378.674 46.606,378.696 46.663,378.631 46.664 C 378.565 46.666,378.668 47.023,378.860 47.458 C 381.125 52.614,380.291 61.462,377.236 64.678 C 377.012 64.914,376.848 65.139,376.873 65.178 C 376.897 65.218,376.890 65.236,376.857 65.218 C 376.824 65.200,376.599 65.395,376.357 65.652 C 374.747 67.354,372.413 68.514,369.583 69.015 C 367.361 69.410,352.887 69.141,352.044 68.690 C 351.629 68.468,351.502 66.556,351.501 60.542 C 351.500 58.227,351.444 56.333,351.375 56.334 C 351.306 56.334,351.299 55.377,351.358 54.209 C 351.418 53.040,351.474 49.594,351.483 46.553 C 351.493 43.511,351.570 40.839,351.655 40.615 C 351.847 40.110,352.233 40.061,360.500 39.497 C 363.545 39.289,368.400 39.411,369.689 39.727 M42.000 47.073 C 44.544 47.414,49.694 48.437,50.448 48.753 L 51.000 48.983 51.000 57.711 C 51.000 67.875,50.912 68.664,49.454 71.583 C 47.843 74.809,45.753 76.817,41.788 78.950 C 18.544 91.453,30.872 116.247,60.333 116.247 C 89.970 116.247,102.109 91.355,78.592 78.810 C 73.353 76.016,71.086 73.241,69.896 68.167 C 69.301 65.630,69.400 57.167,70.025 57.167 C 70.267 57.167,73.219 59.109,75.125 60.523 C 76.953 61.878,76.591 61.828,78.064 60.934 C 89.815 53.800,102.723 52.870,115.643 58.225 C 117.584 59.029,117.417 58.434,117.414 64.550 C 117.401 95.984,92.335 120.552,60.250 120.577 C 27.334 120.602,1.026 93.559,3.027 61.755 C 3.236 58.441,3.228 58.460,4.951 56.769 C 12.743 49.123,27.821 45.177,42.000 47.073 M205.917 47.937 C 202.137 48.230,198.383 49.558,195.301 51.695 C 193.636 52.849,191.298 54.975,191.441 55.205 C 191.502 55.305,191.474 55.337,191.378 55.277 C 191.238 55.191,190.173 56.332,190.284 56.450 C 190.302 56.469,190.084 56.731,189.801 57.033 C 188.320 58.616,186.478 62.114,185.561 65.083 C 184.798 67.556,184.515 68.947,184.410 70.750 C 184.383 71.208,184.321 72.033,184.272 72.583 C 184.083 74.682,184.667 79.769,185.295 81.500 C 185.345 81.637,185.372 81.814,185.354 81.893 C 185.336 81.971,185.391 82.121,185.475 82.226 C 185.559 82.331,185.681 82.662,185.745 82.961 C 185.999 84.150,187.702 87.667,188.024 87.667 C 188.113 87.667,188.146 87.732,188.097 87.812 C 188.007 87.957,189.181 89.613,190.390 91.047 C 191.125 91.920,193.538 94.000,193.815 94.000 C 193.917 94.000,194.000 94.072,194.000 94.160 C 194.000 94.380,196.573 95.882,197.953 96.467 C 204.023 99.042,211.832 99.340,218.258 97.242 C 222.986 95.699,229.134 90.960,228.770 89.140 C 228.630 88.443,227.663 86.500,227.455 86.500 C 227.357 86.500,227.325 86.453,227.383 86.395 C 227.563 86.214,225.496 82.338,225.070 82.059 C 224.575 81.735,223.995 81.859,223.374 82.422 C 222.571 83.152,220.887 84.305,219.380 85.158 C 218.575 85.614,217.831 86.060,217.726 86.150 C 217.621 86.240,217.504 86.282,217.466 86.244 C 217.428 86.206,216.989 86.331,216.490 86.523 C 212.618 88.012,207.459 88.323,204.568 87.241 C 200.752 85.813,197.274 82.437,196.579 79.487 L 196.478 79.057 199.364 78.854 C 200.951 78.742,203.037 78.581,204.000 78.496 C 204.963 78.412,207.662 78.188,210.000 77.999 C 225.838 76.719,227.317 76.385,228.715 73.772 C 229.556 72.200,229.110 65.401,227.992 62.750 C 227.876 62.475,227.771 62.175,227.758 62.083 C 227.659 61.362,226.189 58.585,225.023 56.917 C 220.712 50.747,213.486 47.351,205.917 47.937 M253.083 47.995 C 237.827 49.542,228.158 66.444,233.273 82.625 C 233.599 83.656,233.934 84.500,234.016 84.500 C 234.099 84.500,234.151 84.556,234.133 84.625 C 234.069 84.856,234.524 86.000,234.680 86.000 C 234.764 86.000,234.817 86.056,234.796 86.125 C 234.740 86.311,235.513 87.785,235.863 88.160 C 236.030 88.339,236.167 88.527,236.167 88.578 C 236.167 88.929,238.667 91.853,238.864 91.731 C 238.943 91.682,238.988 91.711,238.962 91.797 C 238.937 91.882,239.292 92.284,239.750 92.690 C 249.438 101.284,266.339 100.577,275.375 91.200 C 276.904 89.614,276.901 89.565,275.059 86.022 C 272.535 81.166,272.568 81.188,270.420 82.878 C 269.960 83.240,269.558 83.603,269.528 83.685 C 269.497 83.767,269.412 83.833,269.337 83.833 C 269.263 83.833,268.575 84.227,267.807 84.708 C 267.040 85.190,266.075 85.731,265.664 85.912 C 265.253 86.093,264.862 86.318,264.794 86.412 C 264.727 86.506,264.671 86.530,264.669 86.466 C 264.668 86.401,264.348 86.464,263.958 86.606 C 262.081 87.289,260.313 87.670,258.542 87.774 C 257.510 87.835,256.667 87.950,256.667 88.031 C 256.667 88.115,256.542 88.114,256.375 88.029 C 256.215 87.946,255.478 87.835,254.739 87.780 C 250.344 87.458,244.374 82.646,244.337 79.396 C 244.334 79.080,246.762 78.631,247.540 78.805 C 247.694 78.839,252.458 78.445,259.500 77.815 C 262.479 77.548,265.029 77.323,265.167 77.315 C 269.919 77.014,274.500 76.185,274.500 75.626 C 274.500 75.546,274.560 75.518,274.634 75.563 C 274.898 75.726,276.027 74.482,276.468 73.542 C 277.615 71.094,276.883 65.072,274.913 60.750 C 270.938 52.028,262.416 47.049,253.083 47.995 M210.136 58.976 C 213.600 60.387,216.293 63.725,216.619 67.013 L 216.695 67.776 215.639 68.053 C 215.058 68.205,213.946 68.409,213.167 68.506 C 208.841 69.047,207.542 69.188,205.500 69.339 C 204.262 69.431,202.575 69.561,201.750 69.628 C 200.925 69.695,199.387 69.712,198.333 69.667 L 196.417 69.583 196.361 68.750 C 196.104 64.891,200.315 59.750,204.616 58.673 C 205.772 58.384,209.134 58.568,210.136 58.976 M257.830 58.987 C 259.881 59.822,261.664 61.316,262.943 63.272 C 263.295 63.810,263.620 64.287,263.666 64.333 C 263.712 64.379,263.766 64.529,263.785 64.667 C 263.804 64.804,263.961 65.492,264.135 66.196 C 264.309 66.900,264.406 67.546,264.351 67.632 C 264.189 67.885,262.519 68.295,261.167 68.415 C 260.479 68.476,259.692 68.597,259.417 68.683 C 259.142 68.768,258.129 68.911,257.167 68.999 C 256.204 69.087,254.728 69.231,253.886 69.318 C 250.862 69.632,244.506 69.793,244.138 69.565 C 243.884 69.408,244.005 67.593,244.335 66.606 C 244.515 66.068,244.625 65.568,244.580 65.495 C 244.535 65.422,244.559 65.337,244.634 65.306 C 244.709 65.275,245.024 64.802,245.335 64.255 C 247.926 59.692,253.640 57.283,257.830 58.987 M307.087 59.510 C 319.464 62.450,320.219 83.278,308.083 87.006 C 307.442 87.203,306.767 87.417,306.583 87.482 C 306.058 87.667,303.005 87.577,302.062 87.350 C 301.592 87.236,301.104 87.122,300.978 87.096 C 300.853 87.070,300.471 86.925,300.130 86.774 C 299.790 86.624,299.465 86.500,299.410 86.500 C 299.124 86.500,296.929 84.923,296.131 84.143 C 293.031 81.116,291.661 77.829,291.670 73.446 C 291.690 64.238,299.035 57.598,307.087 59.510 " stroke="none" fill="#fbfbfb" fill-rule="evenodd"></path></g></svg>