<svg id="svg" version="1.1" xmlns="http://www.w3.org/2000/svg" xmlns:xlink="http://www.w3.org/1999/xlink" width="400" height="392.52336448598135" viewBox="0, 0, 400,392.52336448598135"><g id="svgg"><path id="path0" d="M195.486 11.245 C 189.424 11.412,179.095 12.167,174.877 12.752 C 172.718 13.051,170.069 13.403,168.989 13.535 C 167.034 13.772,165.192 14.129,156.624 15.928 C 140.446 19.325,117.726 28.139,103.827 36.410 C 77.674 51.973,59.328 68.739,42.723 92.252 C 38.959 97.582,27.085 118.267,27.085 119.494 C 27.085 119.619,26.451 121.092,25.675 122.766 C 20.688 133.526,14.410 154.392,15.082 157.974 C 15.519 160.301,17.987 161.065,20.260 159.575 C 20.813 159.213,21.360 159.012,21.476 159.128 C 21.671 159.323,21.320 159.797,18.968 162.512 C 10.210 172.626,8.949 174.803,8.222 181.052 C 7.254 189.379,7.972 212.198,9.446 219.950 C 9.658 221.068,10.193 224.367,10.634 227.282 C 13.542 246.500,23.192 271.333,35.342 290.864 C 58.540 328.153,91.958 354.738,136.016 370.953 C 144.236 373.979,159.856 377.933,167.812 379.002 C 170.402 379.350,173.229 379.790,174.092 379.979 C 195.491 384.667,240.945 380.016,265.162 370.662 C 266.026 370.328,268.675 369.305,271.050 368.388 C 334.204 344.004,379.835 288.459,390.357 223.160 C 393.250 205.207,393.468 181.958,390.793 176.680 C 386.525 168.255,346.789 157.643,326.006 159.377 C 318.831 159.976,300.586 163.044,297.010 164.254 C 295.470 164.775,292.797 165.588,291.070 166.061 C 282.901 168.299,270.772 173.333,262.096 178.088 C 254.890 182.036,255.175 182.067,247.420 176.497 C 236.845 168.901,232.463 167.947,230.033 172.711 C 228.728 175.269,228.851 197.422,230.215 205.473 C 233.045 222.178,242.155 233.702,259.863 242.976 C 298.615 263.271,310.896 294.687,291.474 323.847 C 280.273 340.664,260.279 352.658,231.207 359.997 C 219.329 362.996,197.347 363.779,182.728 361.725 C 180.569 361.421,176.838 360.897,174.437 360.561 C 172.037 360.224,168.769 359.503,167.175 358.959 C 165.582 358.415,162.751 357.635,160.884 357.225 C 159.017 356.815,156.228 355.943,154.686 355.287 C 153.145 354.631,151.162 353.900,150.279 353.663 C 145.193 352.293,130.011 343.915,124.160 339.249 C 87.810 310.261,94.554 267.962,139.352 243.961 C 156.983 234.515,165.973 224.008,170.269 207.826 L 171.721 202.355 171.856 175.074 C 171.954 155.207,171.866 147.218,171.530 145.682 C 170.391 140.462,165.534 138.379,148.577 135.838 C 144.259 135.191,138.960 134.351,136.801 133.973 C 131.117 132.977,99.833 132.952,94.210 133.940 C 92.159 134.300,87.049 135.139,82.855 135.805 C 63.071 138.944,43.877 145.910,27.674 155.831 C 20.835 160.018,20.241 159.923,25.310 155.452 C 36.618 145.479,62.757 134.228,80.864 131.541 C 99.708 128.744,117.342 127.868,130.324 129.082 C 140.110 129.998,153.247 131.885,158.194 133.087 C 171.200 136.245,172.220 135.409,169.989 123.410 C 160.657 73.217,167.488 46.795,194.477 28.684 C 202.252 23.467,209.741 20.777,223.553 18.242 C 238.487 15.500,228.731 11.896,204.711 11.282 C 201.688 11.205,197.537 11.188,195.486 11.245 M258.587 21.229 C 257.664 21.766,257.729 23.110,258.866 26.985 C 262.100 38.002,261.821 61.453,258.276 76.660 C 253.651 96.500,239.121 111.819,211.187 126.306 C 202.720 130.698,201.709 132.635,203.718 140.611 C 205.352 147.093,206.477 148.165,217.350 153.606 C 228.023 158.948,233.924 162.372,244.011 169.076 C 255.615 176.789,255.263 176.732,264.168 172.291 C 288.268 160.271,306.933 155.643,331.305 155.643 C 339.390 155.643,344.621 155.811,346.418 156.129 C 347.929 156.396,351.904 157.048,355.250 157.579 C 358.597 158.109,362.130 158.826,363.101 159.173 C 364.073 159.519,366.825 160.326,369.218 160.966 C 371.611 161.605,375.142 162.763,377.064 163.538 C 387.243 167.642,388.247 164.743,383.058 146.222 C 373.827 113.271,353.332 80.771,327.968 58.864 C 327.104 58.118,325.072 56.351,323.453 54.937 C 305.805 39.524,264.251 17.930,258.587 21.229 M231.951 21.618 C 229.406 21.888,221.402 23.293,214.087 24.754 C 199.857 27.596,184.366 39.803,176.758 54.171 C 170.008 66.919,167.970 89.282,171.767 108.930 C 173.011 115.368,173.684 119.379,174.263 123.804 C 174.514 125.724,175.231 128.903,175.857 130.870 C 176.483 132.837,177.442 136.711,177.989 139.479 C 178.535 142.247,179.333 145.692,179.762 147.133 C 180.190 148.575,181.077 152.051,181.732 154.858 C 182.388 157.664,183.889 163.670,185.068 168.204 C 187.284 176.720,192.257 196.551,195.109 208.243 C 200.411 229.979,200.857 238.075,197.293 247.893 C 194.627 255.239,187.710 262.003,181.367 263.467 L 179.358 263.931 173.159 260.733 C 145.283 246.356,118.384 255.638,109.320 282.759 C 99.081 313.398,130.662 349.775,173.978 357.234 C 209.426 363.338,253.072 350.602,271.849 328.675 C 290.090 307.373,290.847 280.575,273.716 262.559 C 262.056 250.298,248.472 246.332,224.678 248.241 L 220.308 248.591 219.618 247.538 C 218.983 246.569,218.969 246.150,219.441 242.281 C 220.490 233.702,219.577 223.486,216.709 211.692 C 210.363 185.592,208.476 177.972,206.085 168.785 C 203.360 158.321,202.268 153.625,200.199 143.474 C 199.582 140.451,198.640 136.472,198.105 134.630 C 196.507 129.134,196.680 128.883,204.889 124.822 C 211.809 121.397,217.431 118.089,224.926 113.029 C 244.204 100.014,249.831 92.295,255.242 71.443 C 256.888 65.100,256.845 33.609,255.185 29.336 C 252.421 22.223,246.087 20.119,231.951 21.618 M245.857 25.544 C 251.436 27.093,252.794 31.853,252.796 49.863 C 252.798 73.399,248.400 87.306,237.521 98.163 C 229.944 105.724,214.221 116.167,201.379 122.168 C 194.728 125.276,193.523 126.562,193.523 130.550 C 193.523 133.682,194.424 137.468,208.548 193.719 C 216.922 227.068,217.703 232.578,215.782 244.750 C 214.546 252.580,215.456 253.176,226.300 251.641 C 273.238 244.999,299.715 289.448,270.110 325.188 C 255.207 343.181,220.501 356.181,190.186 355.126 C 137.325 353.287,98.139 312.738,115.386 277.723 C 125.185 257.831,149.767 251.615,170.920 263.682 C 179.296 268.461,181.862 268.507,188.819 264.007 C 200.987 256.135,205.951 240.339,202.025 221.982 C 200.159 213.259,197.472 202.005,194.620 190.972 C 190.858 176.417,189.404 170.758,187.656 163.886 C 186.832 160.648,185.628 155.967,184.981 153.484 C 183.314 147.095,181.095 137.420,180.346 133.268 C 179.995 131.325,179.292 127.880,178.784 125.613 C 177.927 121.791,175.742 108.009,174.614 99.313 C 169.317 58.479,188.540 31.296,226.104 26.499 C 236.109 25.221,243.422 24.867,245.857 25.544 M227.326 40.245 C 205.977 43.485,193.247 53.897,189.812 70.925 C 187.736 81.220,190.244 81.875,197.056 72.816 C 210.070 55.510,224.665 45.564,227.598 52.001 C 228.779 54.593,227.538 56.405,221.535 60.854 C 208.847 70.256,199.702 82.559,193.159 99.025 C 187.775 112.576,192.860 112.666,213.543 99.386 C 231.722 87.712,236.855 79.145,238.689 57.411 C 240.071 41.032,238.434 38.559,227.326 40.245 M339.719 47.456 C 339.865 47.693,340.350 48.081,340.795 48.320 C 341.376 48.631,341.531 48.632,341.341 48.324 C 341.194 48.088,340.710 47.699,340.264 47.460 C 339.684 47.150,339.529 47.148,339.719 47.456 M138.077 138.371 C 144.716 139.127,151.649 140.107,153.484 140.548 C 155.319 140.989,158.368 141.688,160.259 142.101 C 168.619 143.926,167.989 141.406,167.999 173.061 C 168.010 204.757,167.699 207.513,163.068 216.766 C 157.881 227.131,151.432 233.306,138.567 240.225 C 101.517 260.153,87.856 291.012,103.190 320.139 C 120.729 353.456,174.070 373.206,223.900 364.835 C 284.816 354.600,318.366 313.036,298.010 273.022 C 291.429 260.086,279.292 248.988,261.624 239.752 C 246.997 232.106,240.119 224.734,235.562 211.820 C 233.509 206.000,233.078 202.195,233.023 189.401 C 232.945 171.478,233.228 171.290,246.322 180.539 C 251.929 184.499,252.979 185.024,255.361 185.056 C 257.477 185.085,257.224 185.195,267.321 179.887 C 285.297 170.438,302.119 165.782,325.954 163.660 C 345.576 161.913,384.982 171.669,387.910 178.999 C 389.574 183.165,389.079 213.711,387.249 219.823 C 387.152 220.147,386.724 222.710,386.297 225.519 C 376.807 288.060,327.595 345.235,264.377 367.167 C 140.685 410.078,11.302 321.597,11.324 194.112 C 11.328 176.582,12.055 174.568,21.251 166.649 C 36.595 153.436,62.511 142.269,84.665 139.325 C 106.327 136.447,119.160 136.217,138.077 138.371 M231.204 264.965 C 220.382 266.209,206.996 270.571,195.549 276.583 C 187.155 280.990,181.712 282.162,175.402 280.918 C 172.144 280.276,170.916 279.732,165.304 276.439 C 146.925 265.656,129.291 272.334,125.414 291.545 C 123.183 302.599,131.903 317.351,146.414 327.074 C 165.943 340.159,190.449 343.833,216.379 337.563 C 219.892 336.713,223.121 336.017,223.553 336.014 C 226.688 335.998,242.279 329.378,248.283 325.514 C 256.931 319.947,263.832 311.617,265.537 304.687 C 265.893 303.243,266.616 300.462,267.145 298.508 C 272.402 279.075,254.423 262.296,231.204 264.965 M262.441 295.217 C 264.642 297.284,264.497 299.265,261.826 303.632 C 253.128 317.856,239.145 328.562,221.909 334.195 C 204.102 340.015,178.513 338.283,160.972 330.071 C 145.666 322.905,133.088 308.130,138.380 303.533 C 140.645 301.564,143.254 302.684,146.529 307.030 C 157.507 321.598,177.284 328.944,201.241 327.353 C 226.041 325.705,242.261 317.007,253.668 299.239 C 257.024 294.010,259.801 292.737,262.441 295.217 " stroke="none" fill="#94c7ec" fill-rule="evenodd"></path><path id="path1" d="M139.315 0.584 C 138.755 0.889,136.473 1.590,134.243 2.142 C 132.013 2.693,129.397 3.609,128.429 4.176 C 127.461 4.743,125.392 5.527,123.830 5.917 C 122.268 6.307,120.132 7.151,119.082 7.792 C 118.033 8.434,116.028 9.332,114.628 9.788 C 113.227 10.244,111.461 11.020,110.702 11.513 C 109.944 12.005,108.351 12.819,107.164 13.321 C 105.976 13.823,104.298 14.709,103.435 15.289 C 102.571 15.870,100.982 16.751,99.904 17.248 C 98.826 17.745,97.232 18.641,96.363 19.239 C 95.493 19.837,94.108 20.608,93.285 20.952 C 91.943 21.513,90.636 22.312,84.214 26.497 C 83.220 27.144,81.458 28.205,80.299 28.853 C 75.585 31.489,65.868 39.490,56.919 48.104 C 46.125 58.492,42.962 61.748,38.208 67.355 C 37.309 68.416,35.835 70.153,34.932 71.215 C 34.030 72.278,32.840 73.868,32.289 74.748 C 31.737 75.629,31.159 76.438,31.003 76.546 C 30.847 76.654,29.972 77.978,29.058 79.490 C 28.144 81.001,26.992 82.679,26.499 83.219 C 26.005 83.759,25.242 84.919,24.802 85.797 C 24.362 86.675,23.712 87.634,23.356 87.929 C 23.001 88.224,22.344 89.184,21.897 90.062 C 21.450 90.940,20.316 92.780,19.379 94.151 C 18.441 95.521,17.499 97.288,17.286 98.076 C 17.073 98.864,16.191 100.450,15.326 101.600 C 14.461 102.750,13.556 104.428,13.316 105.329 C 13.075 106.230,12.199 107.988,11.368 109.236 C 10.459 110.601,9.752 112.214,9.591 113.287 C 9.444 114.268,8.929 115.544,8.446 116.122 C 7.264 117.539,6.504 119.139,5.895 121.492 C 5.616 122.571,4.888 124.255,4.278 125.233 C 3.668 126.211,2.897 128.242,2.565 129.747 C 1.815 133.140,1.158 135.328,0.505 136.605 C -0.241 138.061,-0.227 251.495,0.519 252.618 C 1.096 253.488,1.659 255.292,2.594 259.274 C 2.949 260.785,3.747 262.781,4.367 263.710 C 4.988 264.638,5.496 265.638,5.496 265.932 C 5.496 267.273,7.111 271.448,7.989 272.376 C 8.525 272.942,9.261 274.465,9.625 275.761 C 9.990 277.056,10.879 278.999,11.601 280.079 C 12.324 281.158,13.037 282.571,13.186 283.219 C 13.568 284.881,14.453 286.545,15.740 288.022 C 16.348 288.721,17.033 289.986,17.261 290.832 C 17.489 291.679,18.297 293.275,19.057 294.380 C 19.817 295.485,20.892 297.201,21.447 298.194 C 22.001 299.187,23.055 300.786,23.789 301.747 C 24.522 302.708,25.123 303.677,25.123 303.901 C 25.123 304.124,25.985 305.493,27.040 306.942 C 28.094 308.392,29.231 310.107,29.565 310.755 C 29.900 311.402,30.475 312.181,30.842 312.486 C 31.209 312.791,31.949 313.736,32.486 314.587 C 33.373 315.991,36.448 319.778,38.732 322.277 C 39.225 322.816,40.911 324.760,42.479 326.595 C 46.525 331.332,62.282 346.763,64.827 348.481 C 65.335 348.824,66.554 349.825,67.535 350.705 C 70.401 353.278,71.553 354.236,73.013 355.265 C 73.769 355.796,74.475 356.332,74.583 356.454 C 75.065 357.000,79.200 359.961,79.482 359.961 C 79.654 359.961,81.228 360.906,82.979 362.062 C 88.773 365.886,90.847 367.162,93.425 368.490 C 96.979 370.320,101.695 372.995,103.067 373.959 C 103.701 374.404,104.838 374.969,105.594 375.215 C 106.349 375.460,108.116 376.368,109.519 377.232 C 110.922 378.095,112.217 378.802,112.396 378.803 C 113.006 378.803,117.955 380.875,118.940 381.543 C 119.480 381.908,121.070 382.522,122.473 382.906 C 123.876 383.291,126.064 384.129,127.334 384.769 C 128.605 385.409,131.078 386.294,132.830 386.736 C 134.582 387.178,136.960 387.957,138.114 388.466 C 140.822 389.660,142.401 390.075,146.234 390.596 C 147.954 390.830,150.485 391.363,151.857 391.782 C 154.263 392.515,155.972 392.542,200.104 392.542 L 245.857 392.542 250.014 391.584 C 252.300 391.057,255.530 390.361,257.191 390.038 C 258.853 389.714,261.414 388.926,262.883 388.288 C 264.352 387.650,266.349 387.000,267.321 386.843 C 268.292 386.687,270.500 385.885,272.228 385.062 C 273.955 384.239,276.251 383.355,277.331 383.097 C 278.410 382.840,280.883 381.867,282.826 380.935 C 284.769 380.003,286.951 379.025,287.674 378.762 C 288.398 378.498,289.546 377.904,290.227 377.443 C 290.907 376.981,292.523 376.178,293.818 375.658 C 295.113 375.138,296.684 374.366,297.310 373.942 C 298.356 373.233,300.544 371.996,306.771 368.592 C 308.067 367.884,310.313 366.535,311.764 365.595 C 313.214 364.655,314.492 363.886,314.603 363.886 C 314.841 363.886,320.169 360.380,323.978 357.715 C 325.453 356.683,328.332 354.426,330.376 352.699 C 332.420 350.972,334.625 349.170,335.277 348.696 C 336.869 347.538,346.605 338.416,351.727 333.285 C 355.912 329.091,356.951 327.945,359.754 324.429 C 360.612 323.353,361.760 322.020,362.306 321.466 C 364.497 319.240,370.141 312.046,370.991 310.394 C 371.239 309.913,372.111 308.619,372.929 307.520 C 373.748 306.420,374.742 304.919,375.138 304.183 C 375.534 303.448,376.325 302.228,376.894 301.472 C 377.464 300.716,378.406 299.147,378.989 297.984 C 379.571 296.821,380.476 295.408,380.998 294.844 C 381.521 294.281,382.400 292.640,382.951 291.197 C 383.502 289.755,384.221 288.353,384.549 288.081 C 385.266 287.485,386.831 284.430,387.197 282.910 C 387.342 282.308,388.053 280.983,388.777 279.966 C 389.500 278.948,390.378 277.144,390.726 275.957 C 391.074 274.769,391.869 273.052,392.493 272.139 C 393.117 271.227,393.950 269.284,394.344 267.821 C 394.739 266.359,395.542 264.449,396.128 263.578 C 396.800 262.579,397.443 260.767,397.867 258.674 C 398.237 256.848,398.866 254.592,399.265 253.661 C 399.960 252.041,399.991 249.514,399.997 194.497 L 400.004 137.026 399.021 134.413 C 398.480 132.976,398.037 131.500,398.037 131.133 C 398.037 129.832,396.849 126.493,395.877 125.060 C 395.334 124.260,394.724 122.864,394.521 121.957 C 394.018 119.712,393.184 117.828,391.980 116.214 C 391.425 115.471,390.972 114.638,390.972 114.363 C 390.972 113.237,389.626 110.023,388.378 108.171 C 387.645 107.083,387.046 105.963,387.046 105.681 C 387.046 104.951,385.522 102.011,384.646 101.053 C 384.237 100.607,383.462 99.114,382.922 97.736 C 382.382 96.359,381.530 94.781,381.029 94.230 C 380.211 93.331,378.499 90.643,375.662 85.806 C 375.123 84.886,374.194 83.558,373.598 82.856 C 373.002 82.154,372.040 80.756,371.460 79.750 C 370.880 78.743,369.856 77.213,369.183 76.349 C 368.510 75.486,367.649 74.280,367.268 73.669 C 366.888 73.059,365.308 71.134,363.759 69.391 C 362.210 67.648,360.222 65.321,359.341 64.220 C 356.287 60.399,338.188 42.781,333.072 38.649 C 331.560 37.428,329.878 36.039,329.334 35.563 C 327.386 33.859,322.441 30.305,320.661 29.330 C 319.665 28.784,317.986 27.731,316.932 26.991 C 315.877 26.251,314.224 25.244,313.257 24.755 C 312.290 24.265,310.976 23.424,310.335 22.885 C 309.695 22.346,308.278 21.505,307.186 21.016 C 306.094 20.527,304.256 19.484,303.101 18.699 C 301.946 17.914,300.781 17.272,300.512 17.272 C 300.243 17.272,298.980 16.600,297.706 15.779 C 296.431 14.958,294.593 13.973,293.621 13.590 C 292.650 13.208,291.044 12.378,290.053 11.746 C 289.062 11.114,287.164 10.240,285.836 9.804 C 284.508 9.368,282.534 8.489,281.450 7.849 C 280.366 7.210,278.097 6.334,276.407 5.903 C 274.718 5.472,272.517 4.661,271.516 4.101 C 270.514 3.542,267.631 2.573,265.108 1.949 C 262.585 1.325,260.337 0.632,260.113 0.407 C 259.514 -0.191,254.088 -0.119,253.842 0.491 C 253.687 0.875,253.637 0.876,253.613 0.496 C 253.564 -0.276,140.734 -0.189,139.315 0.584 M215.898 11.818 C 231.361 12.892,235.189 16.105,223.553 18.242 C 209.741 20.777,202.252 23.467,194.477 28.684 C 167.488 46.795,160.657 73.217,169.989 123.410 C 172.220 135.409,171.200 136.245,158.194 133.087 C 153.247 131.885,140.110 129.998,130.324 129.082 C 117.342 127.868,99.708 128.744,80.864 131.541 C 62.757 134.228,36.618 145.479,25.310 155.452 C 20.241 159.923,20.835 160.018,27.674 155.831 C 43.877 145.910,63.071 138.944,82.855 135.805 C 87.049 135.139,92.159 134.300,94.210 133.940 C 99.833 132.952,131.117 132.977,136.801 133.973 C 138.960 134.351,144.259 135.191,148.577 135.838 C 165.534 138.379,170.391 140.462,171.530 145.682 C 171.866 147.218,171.954 155.207,171.856 175.074 L 171.721 202.355 170.269 207.826 C 165.973 224.008,156.983 234.515,139.352 243.961 C 94.554 267.962,87.810 310.261,124.160 339.249 C 130.011 343.915,145.193 352.293,150.279 353.663 C 151.162 353.900,153.145 354.631,154.686 355.287 C 156.228 355.943,159.017 356.815,160.884 357.225 C 162.751 357.635,165.582 358.415,167.175 358.959 C 168.769 359.503,172.037 360.224,174.437 360.561 C 176.838 360.897,180.569 361.421,182.728 361.725 C 197.347 363.779,219.329 362.996,231.207 359.997 C 260.279 352.658,280.273 340.664,291.474 323.847 C 310.896 294.687,298.615 263.271,259.863 242.976 C 242.155 233.702,233.045 222.178,230.215 205.473 C 228.851 197.422,228.728 175.269,230.033 172.711 C 232.463 167.947,236.845 168.901,247.420 176.497 C 255.175 182.067,254.890 182.036,262.096 178.088 C 270.772 173.333,282.901 168.299,291.070 166.061 C 292.797 165.588,295.470 164.775,297.010 164.254 C 300.586 163.044,318.831 159.976,326.006 159.377 C 346.789 157.643,386.525 168.255,390.793 176.680 C 393.468 181.958,393.250 205.207,390.357 223.160 C 379.835 288.459,334.204 344.004,271.050 368.388 C 268.675 369.305,266.026 370.328,265.162 370.662 C 240.945 380.016,195.491 384.667,174.092 379.979 C 173.229 379.790,170.402 379.350,167.812 379.002 C 159.856 377.933,144.236 373.979,136.016 370.953 C 91.958 354.738,58.540 328.153,35.342 290.864 C 23.192 271.333,13.542 246.500,10.634 227.282 C 10.193 224.367,9.658 221.068,9.446 219.950 C 7.972 212.198,7.254 189.379,8.222 181.052 C 8.949 174.803,10.210 172.626,18.968 162.512 C 21.320 159.797,21.671 159.323,21.476 159.128 C 21.360 159.012,20.813 159.213,20.260 159.575 C 17.987 161.065,15.519 160.301,15.082 157.974 C 14.410 154.392,20.688 133.526,25.675 122.766 C 26.451 121.092,27.085 119.619,27.085 119.494 C 27.085 118.267,38.959 97.582,42.723 92.252 C 59.328 68.739,77.674 51.973,103.827 36.410 C 117.726 28.139,140.446 19.325,156.624 15.928 C 165.192 14.129,167.034 13.772,168.989 13.535 C 170.069 13.403,172.718 13.051,174.877 12.752 C 186.189 11.184,201.684 10.831,215.898 11.818 M266.298 22.327 C 284.954 28.778,309.604 42.841,323.453 54.937 C 325.072 56.351,327.104 58.118,327.968 58.864 C 353.332 80.771,373.827 113.271,383.058 146.222 C 388.247 164.743,387.243 167.642,377.064 163.538 C 375.142 162.763,371.611 161.605,369.218 160.966 C 366.825 160.326,364.073 159.519,363.101 159.173 C 362.130 158.826,358.597 158.109,355.250 157.579 C 351.904 157.048,347.929 156.396,346.418 156.129 C 344.621 155.811,339.390 155.643,331.305 155.643 C 306.933 155.643,288.268 160.271,264.168 172.291 C 255.263 176.732,255.615 176.789,244.011 169.076 C 233.924 162.372,228.023 158.948,217.350 153.606 C 206.477 148.165,205.352 147.093,203.718 140.611 C 201.709 132.635,202.720 130.698,211.187 126.306 C 239.121 111.819,253.651 96.500,258.276 76.660 C 261.821 61.453,262.100 38.002,258.866 26.985 C 256.890 20.252,258.101 19.493,266.298 22.327 M246.925 21.827 C 255.777 24.456,257.119 29.865,256.266 59.470 C 255.986 69.173,255.931 69.510,253.034 79.230 C 247.800 96.792,232.767 111.027,204.889 124.822 C 196.680 128.883,196.507 129.134,198.105 134.630 C 198.640 136.472,199.582 140.451,200.199 143.474 C 202.268 153.625,203.360 158.321,206.085 168.785 C 208.476 177.972,210.363 185.592,216.709 211.692 C 219.577 223.486,220.490 233.702,219.441 242.281 C 218.969 246.150,218.983 246.569,219.618 247.538 L 220.308 248.591 224.678 248.241 C 248.472 246.332,262.056 250.298,273.716 262.559 C 290.847 280.575,290.090 307.373,271.849 328.675 C 253.072 350.602,209.426 363.338,173.978 357.234 C 130.662 349.775,99.081 313.398,109.320 282.759 C 118.384 255.638,145.283 246.356,173.159 260.733 L 179.358 263.931 181.367 263.467 C 187.710 262.003,194.627 255.239,197.293 247.893 C 200.857 238.075,200.411 229.979,195.109 208.243 C 192.257 196.551,187.284 176.720,185.068 168.204 C 183.889 163.670,182.388 157.664,181.732 154.858 C 181.077 152.051,180.190 148.575,179.762 147.133 C 179.333 145.692,178.535 142.247,177.989 139.479 C 177.442 136.711,176.483 132.837,175.857 130.870 C 175.231 128.903,174.514 125.724,174.263 123.804 C 173.684 119.379,173.011 115.368,171.767 108.930 C 167.970 89.282,170.008 66.919,176.758 54.171 C 184.366 39.803,199.857 27.596,214.087 24.754 C 231.944 21.188,241.812 20.309,246.925 21.827 M341.341 48.324 C 341.531 48.632,341.376 48.631,340.795 48.320 C 340.350 48.081,339.865 47.693,339.719 47.456 C 339.529 47.148,339.684 47.150,340.264 47.460 C 340.710 47.699,341.194 48.088,341.341 48.324 " stroke="none" fill="#f5f7f9" fill-rule="evenodd"></path><path id="path2" d="M234.936 25.552 C 212.175 27.407,199.585 32.425,188.594 44.024 C 176.864 56.404,171.698 76.833,174.614 99.313 C 175.742 108.009,177.927 121.791,178.784 125.613 C 179.292 127.880,179.995 131.325,180.346 133.268 C 181.095 137.420,183.314 147.095,184.981 153.484 C 185.628 155.967,186.832 160.648,187.656 163.886 C 189.404 170.758,190.858 176.417,194.620 190.972 C 197.472 202.005,200.159 213.259,202.025 221.982 C 205.951 240.339,200.987 256.135,188.819 264.007 C 181.862 268.507,179.296 268.461,170.920 263.682 C 149.767 251.615,125.185 257.831,115.386 277.723 C 98.139 312.738,137.325 353.287,190.186 355.126 C 212.133 355.890,239.700 348.449,256.330 337.274 C 303.802 305.374,282.185 243.733,226.300 251.641 C 215.456 253.176,214.546 252.580,215.782 244.750 C 217.703 232.578,216.922 227.068,208.548 193.719 C 194.424 137.468,193.523 133.682,193.523 130.550 C 193.523 126.562,194.728 125.276,201.379 122.168 C 214.221 116.167,229.944 105.724,237.521 98.163 C 248.400 87.306,252.798 73.399,252.796 49.863 C 252.793 26.212,251.328 24.217,234.936 25.552 M236.512 40.596 C 241.246 43.698,239.075 69.467,233.114 80.924 C 228.863 89.095,213.813 100.755,197.645 108.404 C 191.018 111.539,189.472 108.305,193.159 99.025 C 199.702 82.559,208.847 70.256,221.535 60.854 C 227.538 56.405,228.779 54.593,227.598 52.001 C 224.665 45.564,210.070 55.510,197.056 72.816 C 191.397 80.342,189.537 81.194,189.283 76.380 C 188.665 64.691,197.990 50.826,210.555 44.750 C 218.001 41.149,233.557 38.660,236.512 40.596 M95.780 137.997 C 83.535 139.398,82.076 139.623,75.441 141.144 C 53.285 146.222,34.953 154.850,21.251 166.649 C 12.055 174.568,11.328 176.582,11.324 194.112 C 11.302 326.494,150.930 415.581,275.761 362.831 C 333.444 338.456,377.456 283.783,386.297 225.519 C 386.724 222.710,387.152 220.147,387.249 219.823 C 389.079 213.711,389.574 183.165,387.910 178.999 C 384.982 171.669,345.576 161.913,325.954 163.660 C 302.119 165.782,285.297 170.438,267.321 179.887 C 257.224 185.195,257.477 185.085,255.361 185.056 C 252.979 185.024,251.929 184.499,246.322 180.539 C 233.228 171.290,232.945 171.478,233.023 189.401 C 233.139 216.557,239.849 228.369,261.624 239.752 C 318.155 269.303,318.229 324.808,261.776 352.947 C 202.768 382.360,116.690 361.379,100.263 313.579 C 90.469 285.079,104.253 258.682,138.567 240.225 C 151.432 233.306,157.881 227.131,163.068 216.766 C 167.699 207.513,168.010 204.757,167.999 173.061 C 167.989 141.406,168.619 143.926,160.259 142.101 C 158.368 141.688,155.319 140.989,153.484 140.548 C 140.132 137.337,112.313 136.107,95.780 137.997 M244.539 265.602 C 261.188 269.026,271.184 283.576,267.145 298.508 C 266.616 300.462,265.893 303.243,265.537 304.687 C 263.832 311.617,256.931 319.947,248.283 325.514 C 242.279 329.378,226.688 335.998,223.553 336.014 C 223.121 336.017,219.892 336.713,216.379 337.563 C 190.449 343.833,165.943 340.159,146.414 327.074 C 131.903 317.351,123.183 302.599,125.414 291.545 C 129.291 272.334,146.925 265.656,165.304 276.439 C 170.916 279.732,172.144 280.276,175.402 280.918 C 181.712 282.162,187.155 280.990,195.549 276.583 C 213.510 267.150,231.960 263.015,244.539 265.602 M257.236 294.807 C 256.547 295.261,254.941 297.255,253.668 299.239 C 242.261 317.007,226.041 325.705,201.241 327.353 C 177.284 328.944,157.507 321.598,146.529 307.030 C 141.479 300.329,134.813 301.922,137.581 309.169 C 142.200 321.263,163.681 334.155,183.626 336.803 C 208.865 340.153,231.960 333.870,248.871 319.050 C 255.014 313.667,262.680 303.765,263.843 299.711 C 264.917 295.964,260.480 292.671,257.236 294.807 " stroke="none" fill="#0b0c0d" fill-rule="evenodd"></path></g></svg>