<svg id="svg" version="1.1" xmlns="http://www.w3.org/2000/svg" xmlns:xlink="http://www.w3.org/1999/xlink" width="400" height="128.95522388059703" viewBox="0, 0, 400,128.95522388059703"><g id="svgg"><path id="path0" d="M55.583 4.845 C 39.477 5.841,22.725 14.466,13.000 26.769 C 11.553 28.600,10.926 29.423,10.225 30.417 C 5.287 37.413,1.474 46.897,0.477 54.667 C 0.389 55.354,0.248 56.142,0.164 56.417 C -0.043 57.095,-0.051 70.898,0.155 71.563 C 0.244 71.849,0.390 72.646,0.480 73.333 C 1.344 79.917,4.136 87.740,7.796 93.833 C 9.160 96.105,11.729 99.809,12.246 100.250 C 12.353 100.342,12.510 100.541,12.595 100.692 C 13.232 101.826,18.259 106.986,20.802 109.115 C 25.702 113.216,31.741 116.837,37.250 118.975 C 38.258 119.366,39.233 119.751,39.417 119.831 C 40.539 120.318,43.992 121.328,45.934 121.736 C 46.494 121.854,47.022 121.994,47.108 122.047 C 47.195 122.101,47.674 122.191,48.174 122.248 C 48.674 122.305,49.383 122.424,49.750 122.513 C 54.304 123.619,65.583 123.621,70.917 122.517 C 71.375 122.423,72.162 122.265,72.667 122.166 C 75.544 121.605,79.597 120.476,81.500 119.705 C 81.729 119.612,82.217 119.422,82.583 119.283 C 84.256 118.648,85.500 118.081,85.500 117.953 C 85.500 117.876,85.562 117.852,85.638 117.899 C 85.713 117.946,86.332 117.702,87.013 117.357 C 89.528 116.082,91.000 115.274,91.000 115.166 C 91.000 115.105,91.097 115.056,91.216 115.056 C 91.547 115.056,96.582 111.772,96.801 111.414 C 96.865 111.310,97.029 111.182,97.167 111.129 C 98.804 110.503,106.961 102.386,109.167 99.188 C 109.396 98.855,109.940 98.086,110.375 97.479 C 110.810 96.871,111.167 96.296,111.167 96.201 C 111.167 96.106,111.223 96.003,111.292 95.972 C 111.740 95.773,115.736 88.667,115.400 88.667 C 115.335 88.667,115.398 88.535,115.540 88.375 C 115.766 88.121,117.093 84.901,117.893 82.667 C 119.193 79.038,120.410 73.096,120.779 68.583 C 120.880 67.347,120.878 60.750,120.776 59.500 C 120.311 53.782,119.085 48.431,116.958 42.833 C 116.152 40.713,114.058 36.335,113.230 35.041 C 112.920 34.557,112.667 34.123,112.667 34.077 C 112.667 33.888,111.268 31.833,111.140 31.833 C 111.063 31.833,111.019 31.766,111.042 31.683 C 111.181 31.182,107.103 26.102,104.091 23.025 C 98.116 16.921,91.063 12.127,83.833 9.257 C 82.962 8.911,81.912 8.494,81.500 8.331 C 80.673 8.002,78.346 7.268,78.083 7.251 C 77.992 7.246,77.842 7.195,77.750 7.138 C 77.063 6.711,69.907 5.288,67.083 5.016 C 64.389 4.756,58.449 4.668,55.583 4.845 M74.998 12.637 C 76.236 13.554,76.418 14.553,76.415 20.417 C 76.410 30.055,74.246 34.180,66.594 39.130 C 64.596 40.423,60.978 42.413,59.435 43.069 L 58.312 43.547 58.424 44.232 C 58.717 46.020,59.498 49.252,62.558 61.333 C 65.694 73.715,66.030 76.117,65.150 79.866 C 64.728 81.665,64.687 81.614,66.289 81.280 C 77.123 79.022,85.342 84.518,85.331 94.011 C 85.321 102.094,78.871 108.743,68.219 111.651 C 55.275 115.186,42.829 111.805,36.065 102.917 C 27.008 91.016,39.502 77.192,52.250 85.010 C 53.839 85.984,54.289 86.029,55.638 85.348 C 59.950 83.171,61.662 78.560,60.418 72.476 C 59.973 70.297,58.009 62.298,56.333 55.833 C 49.808 30.668,50.585 21.427,59.734 15.385 C 63.266 13.053,73.154 11.273,74.998 12.637 M69.325 17.583 C 61.739 18.502,57.816 22.005,57.246 28.369 L 57.137 29.583 57.777 28.582 C 59.295 26.204,60.015 25.303,61.909 23.409 C 66.001 19.318,68.560 18.407,69.338 20.764 C 69.633 21.659,69.216 22.303,67.700 23.294 C 63.619 25.961,59.953 30.954,58.104 36.361 C 57.390 38.450,57.409 38.467,59.344 37.495 C 66.185 34.055,69.612 30.922,70.661 27.152 C 71.462 24.270,71.842 17.242,71.191 17.351 C 71.132 17.361,70.292 17.465,69.325 17.583 M41.796 46.566 C 45.954 47.124,50.593 48.126,50.859 48.523 C 51.168 48.986,50.919 66.436,50.584 67.750 C 49.388 72.449,46.735 75.639,41.868 78.232 C 16.686 91.653,33.324 118.567,64.917 115.517 C 91.716 112.931,100.649 89.192,78.924 78.295 C 74.006 75.829,71.319 72.719,70.145 68.136 C 69.566 65.877,69.468 56.667,70.022 56.667 C 70.266 56.667,73.210 58.602,75.125 60.023 C 76.971 61.392,76.613 61.370,78.508 60.227 C 89.994 53.303,102.853 52.437,115.643 57.726 C 117.523 58.504,117.378 58.122,117.465 62.536 C 118.095 94.574,92.752 119.948,60.167 119.904 C 52.761 119.894,49.393 119.374,41.833 117.075 C 23.240 111.422,7.592 93.818,4.010 74.525 C 2.669 67.302,2.623 58.985,3.915 57.408 C 10.489 49.385,27.184 44.606,41.796 46.566 M69.500 85.833 C 66.365 86.245,63.392 87.211,59.693 89.020 C 54.935 91.347,52.981 91.475,50.154 89.644 C 41.721 84.184,34.184 92.034,40.198 100.015 C 47.485 109.686,66.307 110.737,76.295 102.031 C 84.195 95.145,79.725 84.488,69.500 85.833 M79.181 93.618 C 81.822 95.178,76.491 102.255,70.535 105.098 C 60.237 110.012,45.484 107.119,41.034 99.313 C 39.445 96.525,42.319 94.460,43.995 97.185 C 46.796 101.737,51.993 103.956,59.460 103.790 C 67.708 103.606,73.101 100.744,76.329 94.838 C 77.138 93.359,78.068 92.961,79.181 93.618 " stroke="none" fill="#bddef5" fill-rule="evenodd"></path><path id="path1" d="M71.333 12.615 C 64.701 13.000,60.708 14.423,57.337 17.603 C 50.985 23.595,50.679 32.315,56.071 53.667 C 61.146 73.760,61.038 73.274,61.050 76.167 C 61.068 80.543,59.231 83.833,55.801 85.566 C 54.281 86.334,53.839 86.319,52.485 85.454 C 46.565 81.674,39.633 82.307,35.925 86.966 C 26.648 98.626,42.616 114.690,61.465 112.659 C 75.270 111.171,84.632 104.012,85.121 94.569 C 85.602 85.288,77.232 79.368,66.617 81.481 C 64.264 81.949,64.385 82.034,64.804 80.216 C 65.557 76.946,65.450 74.625,64.311 69.587 C 63.634 66.587,63.138 64.591,60.771 55.333 C 59.707 51.170,58.494 46.075,58.086 44.054 L 57.979 43.526 61.180 41.901 C 72.813 35.998,75.869 31.766,76.123 21.212 C 76.322 12.890,76.017 12.343,71.333 12.615 M71.850 17.197 C 72.437 18.295,71.754 25.839,70.840 28.342 C 69.707 31.446,66.027 34.640,60.037 37.720 C 56.981 39.291,56.620 39.099,57.526 36.386 C 59.405 30.760,63.164 25.603,67.364 22.885 C 68.912 21.884,69.221 21.185,68.471 20.386 C 66.915 18.729,60.776 24.191,57.430 30.208 C 56.645 31.621,56.500 31.618,56.500 30.188 C 56.500 22.120,61.954 17.144,71.119 16.850 C 71.510 16.838,71.708 16.932,71.850 17.197 M324.750 27.511 C 323.283 27.591,321.764 27.734,321.373 27.828 C 320.982 27.923,320.034 28.000,319.266 28.000 C 318.140 28.000,317.794 28.062,317.477 28.319 L 317.083 28.638 317.147 41.596 L 317.211 54.554 316.730 54.203 C 316.466 54.010,315.912 53.545,315.500 53.169 C 307.414 45.796,295.710 46.057,287.486 53.793 C 283.278 57.752,280.739 63.160,279.996 69.750 C 277.370 93.037,301.383 107.029,317.250 91.456 L 317.917 90.802 318.038 93.077 C 318.244 96.933,318.494 97.191,321.695 96.848 C 322.823 96.727,324.049 96.713,325.250 96.809 C 327.355 96.976,328.977 96.829,329.609 96.415 L 330.047 96.128 329.929 93.106 C 329.864 91.443,329.740 89.558,329.653 88.917 C 329.184 85.469,329.306 57.012,329.831 47.250 C 330.137 41.549,330.222 28.106,329.954 27.756 C 329.644 27.353,328.591 27.303,324.750 27.511 M160.667 27.670 C 151.763 28.409,145.235 33.105,142.678 40.612 C 140.896 45.840,141.447 52.661,144.000 56.988 C 145.941 60.279,146.814 60.933,156.917 66.666 C 160.871 68.910,162.449 70.089,163.426 71.529 C 163.695 71.925,163.953 72.287,164.000 72.333 C 164.832 73.161,165.113 76.637,164.495 78.469 C 162.852 83.344,157.714 84.997,145.957 84.433 C 141.716 84.230,141.656 84.294,142.679 87.929 C 143.249 89.951,143.707 92.067,144.011 94.083 C 144.428 96.849,144.578 97.044,146.633 97.479 C 147.757 97.718,153.013 97.722,155.132 97.487 C 166.168 96.261,174.898 90.023,177.402 81.572 C 177.645 80.753,177.916 79.852,178.006 79.570 C 178.528 77.917,178.466 71.344,177.913 69.715 C 177.778 69.315,177.667 68.877,177.667 68.742 C 177.667 68.606,177.598 68.365,177.514 68.206 C 177.430 68.047,177.098 67.340,176.777 66.635 C 175.792 64.475,173.821 62.010,171.960 60.611 C 171.192 60.034,167.819 58.189,161.250 54.755 C 156.299 52.166,154.574 50.178,154.594 47.083 C 154.618 43.346,156.595 40.830,159.848 40.399 C 160.302 40.339,160.714 40.224,160.764 40.145 C 160.882 39.953,164.090 39.958,164.461 40.150 C 164.620 40.233,165.200 40.375,165.750 40.466 C 166.904 40.656,168.633 41.107,169.005 41.315 C 169.146 41.393,169.521 41.513,169.839 41.581 C 170.157 41.649,170.492 41.761,170.583 41.829 C 170.675 41.897,171.313 42.145,172.000 42.381 C 172.688 42.617,173.529 42.927,173.870 43.071 C 175.830 43.900,176.235 43.526,178.094 39.167 C 178.381 38.495,178.724 37.839,180.545 34.487 C 181.386 32.940,180.757 32.149,177.620 30.806 C 176.775 30.444,175.968 30.087,175.828 30.012 C 175.687 29.937,175.315 29.819,175.000 29.750 C 174.685 29.681,174.313 29.561,174.172 29.484 C 173.623 29.182,170.540 28.466,168.167 28.089 C 167.387 27.965,166.637 27.826,166.500 27.779 C 166.045 27.623,162.108 27.550,160.667 27.670 M360.500 28.207 C 356.797 28.364,352.434 28.375,344.714 28.247 C 337.801 28.132,337.540 28.221,337.727 30.617 C 337.776 31.240,337.896 33.550,337.993 35.750 C 338.090 37.950,338.241 40.162,338.328 40.667 C 338.875 43.851,338.878 79.650,338.330 81.091 C 338.259 81.279,338.145 84.618,338.078 88.510 L 337.955 95.588 338.392 96.107 C 338.977 96.803,339.320 96.849,342.333 96.641 C 344.425 96.496,345.472 96.511,347.833 96.718 C 352.382 97.118,352.563 97.011,352.436 94.000 C 352.343 91.802,351.848 83.139,351.726 81.592 C 351.514 78.888,351.954 78.586,355.707 78.851 C 360.554 79.194,373.120 79.142,375.000 78.771 C 385.102 76.781,391.653 69.715,393.330 59.000 C 395.842 42.945,387.092 30.196,372.167 28.165 C 370.892 27.991,365.100 28.012,360.500 28.207 M369.929 39.165 C 370.655 39.349,371.400 39.569,371.583 39.655 C 371.767 39.741,372.217 39.943,372.583 40.104 C 376.495 41.824,379.497 46.092,380.187 50.917 C 381.549 60.440,377.186 67.508,369.338 68.490 C 366.605 68.832,353.426 68.569,352.266 68.150 L 351.718 67.952 351.609 64.199 C 351.469 59.396,351.469 42.843,351.608 41.050 C 351.738 39.382,351.348 39.548,355.910 39.215 C 364.303 38.602,367.650 38.590,369.929 39.165 M30.167 46.609 C 18.861 47.693,10.731 50.945,4.974 56.688 L 3.531 58.127 3.396 59.272 C 3.322 59.901,3.266 62.104,3.272 64.167 C 3.378 99.586,36.492 125.793,72.045 118.594 C 97.823 113.375,116.668 91.217,117.270 65.417 C 117.367 61.267,117.203 58.677,116.833 58.496 C 104.843 52.637,90.230 53.473,78.191 60.706 L 76.799 61.543 75.858 60.858 C 74.216 59.664,70.523 57.165,70.240 57.056 C 69.782 56.881,69.978 66.592,70.467 68.337 C 71.698 72.731,74.138 75.543,78.758 77.891 C 95.833 86.571,95.663 103.673,78.417 112.090 C 66.650 117.832,50.008 117.174,39.469 110.550 C 24.984 101.446,26.049 86.240,41.750 77.989 C 46.119 75.693,48.552 73.009,49.926 68.971 C 50.627 66.913,50.687 65.896,50.634 57.007 L 50.583 48.598 49.833 48.375 C 45.156 46.987,35.384 46.109,30.167 46.609 M204.583 47.498 C 195.332 49.030,186.804 57.136,185.175 65.946 C 185.083 66.445,184.969 66.915,184.922 66.991 C 184.701 67.349,184.336 71.142,184.336 73.083 C 184.336 88.593,195.321 98.858,210.917 97.922 C 217.847 97.506,222.788 95.433,227.387 91.010 C 229.437 89.039,229.438 89.109,227.340 85.083 C 224.948 80.492,225.138 80.603,222.729 82.384 C 221.188 83.525,218.947 85.000,218.757 85.000 C 218.710 85.000,218.235 85.212,217.700 85.471 C 214.485 87.028,206.998 88.011,205.786 87.035 C 205.674 86.945,205.321 86.816,205.000 86.747 C 202.139 86.137,198.260 82.771,197.063 79.862 C 196.439 78.344,196.065 78.492,201.500 78.103 C 203.287 77.975,205.650 77.785,206.750 77.682 C 207.850 77.578,209.688 77.416,210.833 77.321 C 216.361 76.862,220.032 76.495,224.083 75.994 C 228.714 75.422,230.151 72.708,229.198 66.333 C 228.787 63.580,227.557 60.146,226.143 57.804 C 221.635 50.337,212.839 46.132,204.583 47.498 M252.250 47.498 C 244.499 48.782,238.323 53.555,234.681 61.077 C 233.437 63.646,232.837 65.564,232.308 68.667 C 232.100 69.885,232.104 76.131,232.313 77.500 C 232.622 79.522,233.167 81.740,233.510 82.373 C 233.596 82.532,233.669 82.757,233.672 82.873 C 233.675 82.989,233.823 83.383,234.000 83.750 C 234.177 84.117,234.325 84.495,234.328 84.590 C 234.340 84.962,236.095 87.817,237.089 89.083 C 245.888 100.283,265.179 101.154,275.283 90.807 C 277.010 89.038,277.014 89.166,275.137 85.417 C 272.704 80.558,272.757 80.602,270.953 81.985 C 260.967 89.639,249.373 88.971,245.026 80.491 C 243.908 78.311,243.574 78.503,249.167 78.103 C 250.954 77.975,253.317 77.787,254.417 77.685 C 255.517 77.583,257.354 77.421,258.500 77.324 C 264.353 76.829,267.733 76.490,271.750 75.994 C 275.836 75.490,277.091 73.783,276.954 68.917 C 276.877 66.168,276.788 65.575,276.065 63.000 C 274.234 56.475,268.704 50.544,262.500 48.450 C 259.655 47.491,254.942 47.053,252.250 47.498 M208.667 58.004 C 212.626 58.618,216.667 62.913,216.667 66.508 L 216.667 67.306 215.875 67.502 C 214.969 67.725,212.315 68.105,210.000 68.341 C 209.129 68.430,207.967 68.580,207.417 68.674 C 205.195 69.053,197.148 69.308,196.684 69.014 C 196.219 68.720,196.536 66.262,197.233 64.752 C 199.481 59.886,203.919 57.267,208.667 58.004 M256.428 58.005 C 260.435 58.699,264.328 62.896,264.332 66.528 L 264.333 67.306 263.542 67.502 C 262.635 67.725,259.981 68.105,257.667 68.341 C 256.796 68.430,255.633 68.579,255.083 68.671 C 252.988 69.022,245.268 69.301,244.362 69.058 C 243.624 68.861,244.131 65.906,245.244 63.917 C 247.664 59.594,252.091 57.254,256.428 58.005 M308.367 59.221 C 319.082 63.267,320.047 80.722,309.833 85.744 C 309.329 85.991,308.800 86.255,308.657 86.329 C 308.044 86.646,306.287 86.886,304.583 86.886 C 302.880 86.886,301.123 86.646,300.510 86.329 C 300.367 86.255,299.837 85.991,299.333 85.744 C 291.395 81.841,289.293 70.128,295.259 63.039 C 297.181 60.755,299.594 59.300,302.333 58.772 C 303.587 58.531,307.262 58.804,308.367 59.221 M74.223 85.597 C 82.776 87.803,83.177 98.112,74.931 103.813 C 63.163 111.948,44.205 109.175,38.594 98.499 C 34.390 90.498,42.748 83.890,50.407 89.160 C 52.900 90.875,54.951 90.761,59.123 88.675 C 65.137 85.667,70.366 84.602,74.223 85.597 M77.534 94.095 C 77.329 94.239,76.965 94.745,76.727 95.220 C 71.377 105.875,51.185 107.913,44.295 98.494 C 42.809 96.462,42.848 96.500,42.249 96.500 C 39.947 96.500,41.241 99.793,44.624 102.542 C 51.750 108.332,64.846 108.558,73.083 103.033 C 75.871 101.163,79.500 96.653,79.500 95.059 C 79.500 94.131,78.314 93.549,77.534 94.095 " stroke="none" fill="#0b0c0c" fill-rule="evenodd"></path><path id="path2" d="M71.000 12.337 C 63.607 12.876,59.318 14.689,55.881 18.729 C 50.632 24.898,50.746 34.286,56.333 55.833 C 58.009 62.298,59.973 70.297,60.418 72.476 C 61.662 78.560,59.950 83.171,55.638 85.348 C 54.289 86.029,53.839 85.984,52.250 85.010 C 39.502 77.192,27.008 91.016,36.065 102.917 C 42.829 111.805,55.275 115.186,68.219 111.651 C 78.871 108.743,85.321 102.094,85.331 94.011 C 85.342 84.518,77.123 79.022,66.289 81.280 C 64.687 81.614,64.728 81.665,65.150 79.866 C 66.030 76.117,65.694 73.715,62.558 61.333 C 59.498 49.252,58.717 46.020,58.424 44.232 L 58.312 43.547 59.435 43.069 C 60.978 42.413,64.596 40.423,66.594 39.130 C 74.246 34.180,76.410 30.055,76.415 20.417 C 76.419 12.375,76.142 11.962,71.000 12.337 M74.783 12.826 C 75.959 13.543,76.261 15.436,76.123 21.212 C 75.869 31.766,72.813 35.998,61.180 41.901 L 57.979 43.526 58.086 44.054 C 58.494 46.075,59.707 51.170,60.771 55.333 C 63.138 64.591,63.634 66.587,64.311 69.587 C 65.450 74.625,65.557 76.946,64.804 80.216 C 64.385 82.034,64.264 81.949,66.617 81.481 C 75.940 79.626,83.346 83.699,84.939 91.560 C 88.327 108.283,59.565 119.456,42.083 108.207 C 36.174 104.405,32.484 98.022,33.317 93.045 C 34.874 83.746,44.093 80.095,52.485 85.454 C 53.839 86.319,54.281 86.334,55.801 85.566 C 59.231 83.833,61.068 80.543,61.050 76.167 C 61.038 73.274,61.146 73.760,56.071 53.667 C 50.679 32.315,50.985 23.595,57.337 17.603 C 60.322 14.787,63.197 13.566,68.347 12.926 C 72.303 12.434,74.094 12.406,74.783 12.826 M68.847 17.103 C 60.749 18.202,56.500 22.705,56.500 30.188 C 56.500 31.618,56.645 31.621,57.430 30.208 C 60.776 24.191,66.915 18.729,68.471 20.386 C 69.221 21.185,68.912 21.884,67.364 22.885 C 63.164 25.603,59.405 30.760,57.526 36.386 C 56.620 39.099,56.981 39.291,60.037 37.720 C 69.442 32.885,71.701 29.680,71.952 20.822 C 72.077 16.394,72.280 16.637,68.847 17.103 M71.399 17.597 C 71.785 18.604,71.304 24.838,70.661 27.152 C 69.612 30.922,66.185 34.055,59.344 37.495 C 57.409 38.467,57.390 38.450,58.104 36.361 C 59.953 30.954,63.619 25.961,67.700 23.294 C 69.216 22.303,69.633 21.659,69.338 20.764 C 68.560 18.407,66.001 19.318,61.909 23.409 C 60.015 25.303,59.295 26.204,57.777 28.582 L 57.137 29.583 57.246 28.369 C 57.816 22.005,61.739 18.502,69.325 17.583 C 70.292 17.465,71.132 17.361,71.191 17.351 C 71.249 17.341,71.343 17.452,71.399 17.597 M29.667 46.340 C 18.675 47.375,8.581 51.713,3.915 57.408 C 2.623 58.985,2.669 67.302,4.010 74.525 C 7.592 93.818,23.240 111.422,41.833 117.075 C 49.393 119.374,52.761 119.894,60.167 119.904 C 92.752 119.948,118.095 94.574,117.465 62.536 C 117.378 58.122,117.523 58.504,115.643 57.726 C 102.853 52.437,89.994 53.303,78.508 60.227 C 76.613 61.370,76.971 61.392,75.125 60.023 C 73.210 58.602,70.266 56.667,70.022 56.667 C 69.468 56.667,69.566 65.877,70.145 68.136 C 71.319 72.719,74.006 75.829,78.924 78.295 C 100.649 89.192,91.716 112.931,64.917 115.517 C 33.324 118.567,16.686 91.653,41.868 78.232 C 46.735 75.639,49.388 72.449,50.584 67.750 C 50.919 66.436,51.168 48.986,50.859 48.523 C 50.593 48.126,45.954 47.124,41.796 46.566 C 39.557 46.266,31.960 46.124,29.667 46.340 M39.833 46.676 C 43.095 46.975,47.818 47.777,49.833 48.375 L 50.583 48.598 50.634 57.007 C 50.687 65.896,50.627 66.913,49.926 68.971 C 48.552 73.009,46.119 75.693,41.750 77.989 C 26.049 86.240,24.984 101.446,39.469 110.550 C 51.272 117.968,70.568 117.756,82.000 110.081 C 95.827 100.798,94.317 85.800,78.758 77.891 C 74.138 75.543,71.698 72.731,70.467 68.337 C 69.978 66.592,69.782 56.881,70.240 57.056 C 70.523 57.165,74.216 59.664,75.858 60.858 L 76.799 61.543 78.191 60.706 C 90.230 53.473,104.843 52.637,116.833 58.496 C 117.203 58.677,117.367 61.267,117.270 65.417 C 116.468 99.770,84.261 125.176,49.583 118.810 C 26.107 114.500,7.658 95.917,3.938 72.833 C 3.291 68.823,3.033 62.356,3.396 59.272 L 3.531 58.127 4.974 56.688 C 10.731 50.945,18.861 47.693,30.167 46.609 C 31.595 46.472,38.095 46.517,39.833 46.676 M69.092 85.346 C 66.044 85.766,62.723 86.875,59.123 88.675 C 54.951 90.761,52.900 90.875,50.407 89.160 C 42.748 83.890,34.390 90.498,38.594 98.499 C 44.205 109.175,63.163 111.948,74.931 103.813 C 85.327 96.626,81.232 83.675,69.092 85.346 M74.000 86.106 C 79.448 87.439,81.913 93.019,79.330 98.168 C 74.895 107.008,57.743 110.868,46.917 105.463 C 39.192 101.606,35.913 94.672,39.640 90.071 C 42.029 87.121,46.008 86.959,50.154 89.644 C 52.981 91.475,54.935 91.347,59.693 89.020 C 65.618 86.123,70.230 85.184,74.000 86.106 M77.335 93.548 C 77.106 93.664,76.654 94.244,76.329 94.838 C 73.101 100.744,67.708 103.606,59.460 103.790 C 51.993 103.956,46.796 101.737,43.995 97.185 C 42.319 94.460,39.445 96.525,41.034 99.313 C 45.997 108.020,62.938 110.308,73.083 103.642 C 75.798 101.858,79.249 97.837,79.822 95.790 C 80.307 94.060,78.875 92.769,77.335 93.548 M79.091 94.242 C 80.755 95.906,75.659 101.966,70.417 104.557 C 63.574 107.939,53.265 107.796,47.091 104.232 C 42.289 101.459,39.183 96.500,42.249 96.500 C 42.848 96.500,42.809 96.462,44.295 98.494 C 51.185 107.913,71.377 105.875,76.727 95.220 C 77.432 93.817,78.304 93.456,79.091 94.242 " stroke="none" fill="#79a1be" fill-rule="evenodd"></path></g></svg>